<?xml version="1.0" encoding="utf-8" standalone="no"?>
<!DOCTYPE svg PUBLIC "-//W3C//DTD SVG 1.1//EN"
  "http://www.w3.org/Graphics/SVG/1.1/DTD/svg11.dtd">
<!-- Created with matplotlib (https://matplotlib.org/) -->
<svg height="345.6pt" version="1.1" viewBox="0 0 460.8 345.6" width="460.8pt" xmlns="http://www.w3.org/2000/svg" xmlns:xlink="http://www.w3.org/1999/xlink">
 <metadata>
  <rdf:RDF xmlns:cc="http://creativecommons.org/ns#" xmlns:dc="http://purl.org/dc/elements/1.1/" xmlns:rdf="http://www.w3.org/1999/02/22-rdf-syntax-ns#">
   <cc:Work>
    <dc:type rdf:resource="http://purl.org/dc/dcmitype/StillImage"/>
    <dc:date>2021-03-07T20:09:00.542321</dc:date>
    <dc:format>image/svg+xml</dc:format>
    <dc:creator>
     <cc:Agent>
      <dc:title>Matplotlib v3.3.4, https://matplotlib.org/</dc:title>
     </cc:Agent>
    </dc:creator>
   </cc:Work>
  </rdf:RDF>
 </metadata>
 <defs>
  <style type="text/css">*{stroke-linecap:butt;stroke-linejoin:round;}</style>
 </defs>
 <g id="figure_1">
  <g id="patch_1">
   <path d="M 0 345.6 
L 460.8 345.6 
L 460.8 0 
L 0 0 
z
" style="fill:#ffffff;"/>
  </g>
  <g id="axes_1">
   <g id="patch_2">
    <path d="M 57.6 307.584 
L 414.72 307.584 
L 414.72 41.472 
L 57.6 41.472 
z
" style="fill:#ffffff;"/>
   </g>
   <g id="matplotlib.axis_1">
    <g id="xtick_1">
     <g id="line2d_1">
      <defs>
       <path d="M 0 0 
L 0 3.5 
" id="m4cea7597e9" style="stroke:#000000;stroke-width:0.8;"/>
      </defs>
      <g>
       <use style="stroke:#000000;stroke-width:0.8;" x="73.832727" xlink:href="#m4cea7597e9" y="307.584"/>
      </g>
     </g>
     <g id="text_1">
      <!-- 0 -->
      <g transform="translate(67.282797 324.34569)rotate(-30)scale(0.1 -0.1)">
       <defs>
        <path d="M 31.78125 66.40625 
Q 24.171875 66.40625 20.328125 58.90625 
Q 16.5 51.421875 16.5 36.375 
Q 16.5 21.390625 20.328125 13.890625 
Q 24.171875 6.390625 31.78125 6.390625 
Q 39.453125 6.390625 43.28125 13.890625 
Q 47.125 21.390625 47.125 36.375 
Q 47.125 51.421875 43.28125 58.90625 
Q 39.453125 66.40625 31.78125 66.40625 
z
M 31.78125 74.21875 
Q 44.046875 74.21875 50.515625 64.515625 
Q 56.984375 54.828125 56.984375 36.375 
Q 56.984375 17.96875 50.515625 8.265625 
Q 44.046875 -1.421875 31.78125 -1.421875 
Q 19.53125 -1.421875 13.0625 8.265625 
Q 6.59375 17.96875 6.59375 36.375 
Q 6.59375 54.828125 13.0625 64.515625 
Q 19.53125 74.21875 31.78125 74.21875 
z
" id="DejaVuSans-48"/>
       </defs>
       <use xlink:href="#DejaVuSans-48"/>
      </g>
     </g>
    </g>
    <g id="xtick_2">
     <g id="line2d_2">
      <g>
       <use style="stroke:#000000;stroke-width:0.8;" x="137.993705" xlink:href="#m4cea7597e9" y="307.584"/>
      </g>
     </g>
     <g id="text_2">
      <!-- 50 -->
      <g transform="translate(125.933688 327.52694)rotate(-30)scale(0.1 -0.1)">
       <defs>
        <path d="M 10.796875 72.90625 
L 49.515625 72.90625 
L 49.515625 64.59375 
L 19.828125 64.59375 
L 19.828125 46.734375 
Q 21.96875 47.46875 24.109375 47.828125 
Q 26.265625 48.1875 28.421875 48.1875 
Q 40.625 48.1875 47.75 41.5 
Q 54.890625 34.8125 54.890625 23.390625 
Q 54.890625 11.625 47.5625 5.09375 
Q 40.234375 -1.421875 26.90625 -1.421875 
Q 22.3125 -1.421875 17.546875 -0.640625 
Q 12.796875 0.140625 7.71875 1.703125 
L 7.71875 11.625 
Q 12.109375 9.234375 16.796875 8.0625 
Q 21.484375 6.890625 26.703125 6.890625 
Q 35.15625 6.890625 40.078125 11.328125 
Q 45.015625 15.765625 45.015625 23.390625 
Q 45.015625 31 40.078125 35.4375 
Q 35.15625 39.890625 26.703125 39.890625 
Q 22.75 39.890625 18.8125 39.015625 
Q 14.890625 38.140625 10.796875 36.28125 
z
" id="DejaVuSans-53"/>
       </defs>
       <use xlink:href="#DejaVuSans-53"/>
       <use x="63.623047" xlink:href="#DejaVuSans-48"/>
      </g>
     </g>
    </g>
    <g id="xtick_3">
     <g id="line2d_3">
      <g>
       <use style="stroke:#000000;stroke-width:0.8;" x="202.154682" xlink:href="#m4cea7597e9" y="307.584"/>
      </g>
     </g>
     <g id="text_3">
      <!-- 100 -->
      <g transform="translate(184.584578 330.70819)rotate(-30)scale(0.1 -0.1)">
       <defs>
        <path d="M 12.40625 8.296875 
L 28.515625 8.296875 
L 28.515625 63.921875 
L 10.984375 60.40625 
L 10.984375 69.390625 
L 28.421875 72.90625 
L 38.28125 72.90625 
L 38.28125 8.296875 
L 54.390625 8.296875 
L 54.390625 0 
L 12.40625 0 
z
" id="DejaVuSans-49"/>
       </defs>
       <use xlink:href="#DejaVuSans-49"/>
       <use x="63.623047" xlink:href="#DejaVuSans-48"/>
       <use x="127.246094" xlink:href="#DejaVuSans-48"/>
      </g>
     </g>
    </g>
    <g id="xtick_4">
     <g id="line2d_4">
      <g>
       <use style="stroke:#000000;stroke-width:0.8;" x="266.315659" xlink:href="#m4cea7597e9" y="307.584"/>
      </g>
     </g>
     <g id="text_4">
      <!-- 150 -->
      <g transform="translate(248.745556 330.70819)rotate(-30)scale(0.1 -0.1)">
       <use xlink:href="#DejaVuSans-49"/>
       <use x="63.623047" xlink:href="#DejaVuSans-53"/>
       <use x="127.246094" xlink:href="#DejaVuSans-48"/>
      </g>
     </g>
    </g>
    <g id="xtick_5">
     <g id="line2d_5">
      <g>
       <use style="stroke:#000000;stroke-width:0.8;" x="330.476637" xlink:href="#m4cea7597e9" y="307.584"/>
      </g>
     </g>
     <g id="text_5">
      <!-- 200 -->
      <g transform="translate(312.906533 330.70819)rotate(-30)scale(0.1 -0.1)">
       <defs>
        <path d="M 19.1875 8.296875 
L 53.609375 8.296875 
L 53.609375 0 
L 7.328125 0 
L 7.328125 8.296875 
Q 12.9375 14.109375 22.625 23.890625 
Q 32.328125 33.6875 34.8125 36.53125 
Q 39.546875 41.84375 41.421875 45.53125 
Q 43.3125 49.21875 43.3125 52.78125 
Q 43.3125 58.59375 39.234375 62.25 
Q 35.15625 65.921875 28.609375 65.921875 
Q 23.96875 65.921875 18.8125 64.3125 
Q 13.671875 62.703125 7.8125 59.421875 
L 7.8125 69.390625 
Q 13.765625 71.78125 18.9375 73 
Q 24.125 74.21875 28.421875 74.21875 
Q 39.75 74.21875 46.484375 68.546875 
Q 53.21875 62.890625 53.21875 53.421875 
Q 53.21875 48.921875 51.53125 44.890625 
Q 49.859375 40.875 45.40625 35.40625 
Q 44.1875 33.984375 37.640625 27.21875 
Q 31.109375 20.453125 19.1875 8.296875 
z
" id="DejaVuSans-50"/>
       </defs>
       <use xlink:href="#DejaVuSans-50"/>
       <use x="63.623047" xlink:href="#DejaVuSans-48"/>
       <use x="127.246094" xlink:href="#DejaVuSans-48"/>
      </g>
     </g>
    </g>
    <g id="xtick_6">
     <g id="line2d_6">
      <g>
       <use style="stroke:#000000;stroke-width:0.8;" x="394.637614" xlink:href="#m4cea7597e9" y="307.584"/>
      </g>
     </g>
     <g id="text_6">
      <!-- 250 -->
      <g transform="translate(377.06751 330.70819)rotate(-30)scale(0.1 -0.1)">
       <use xlink:href="#DejaVuSans-50"/>
       <use x="63.623047" xlink:href="#DejaVuSans-53"/>
       <use x="127.246094" xlink:href="#DejaVuSans-48"/>
      </g>
     </g>
    </g>
    <g id="text_7">
     <!-- Date -->
     <g transform="translate(224.209219 344.10769)scale(0.1 -0.1)">
      <defs>
       <path d="M 19.671875 64.796875 
L 19.671875 8.109375 
L 31.59375 8.109375 
Q 46.6875 8.109375 53.6875 14.9375 
Q 60.6875 21.78125 60.6875 36.53125 
Q 60.6875 51.171875 53.6875 57.984375 
Q 46.6875 64.796875 31.59375 64.796875 
z
M 9.8125 72.90625 
L 30.078125 72.90625 
Q 51.265625 72.90625 61.171875 64.09375 
Q 71.09375 55.28125 71.09375 36.53125 
Q 71.09375 17.671875 61.125 8.828125 
Q 51.171875 0 30.078125 0 
L 9.8125 0 
z
" id="DejaVuSans-68"/>
       <path d="M 34.28125 27.484375 
Q 23.390625 27.484375 19.1875 25 
Q 14.984375 22.515625 14.984375 16.5 
Q 14.984375 11.71875 18.140625 8.90625 
Q 21.296875 6.109375 26.703125 6.109375 
Q 34.1875 6.109375 38.703125 11.40625 
Q 43.21875 16.703125 43.21875 25.484375 
L 43.21875 27.484375 
z
M 52.203125 31.203125 
L 52.203125 0 
L 43.21875 0 
L 43.21875 8.296875 
Q 40.140625 3.328125 35.546875 0.953125 
Q 30.953125 -1.421875 24.3125 -1.421875 
Q 15.921875 -1.421875 10.953125 3.296875 
Q 6 8.015625 6 15.921875 
Q 6 25.140625 12.171875 29.828125 
Q 18.359375 34.515625 30.609375 34.515625 
L 43.21875 34.515625 
L 43.21875 35.40625 
Q 43.21875 41.609375 39.140625 45 
Q 35.0625 48.390625 27.6875 48.390625 
Q 23 48.390625 18.546875 47.265625 
Q 14.109375 46.140625 10.015625 43.890625 
L 10.015625 52.203125 
Q 14.9375 54.109375 19.578125 55.046875 
Q 24.21875 56 28.609375 56 
Q 40.484375 56 46.34375 49.84375 
Q 52.203125 43.703125 52.203125 31.203125 
z
" id="DejaVuSans-97"/>
       <path d="M 18.3125 70.21875 
L 18.3125 54.6875 
L 36.8125 54.6875 
L 36.8125 47.703125 
L 18.3125 47.703125 
L 18.3125 18.015625 
Q 18.3125 11.328125 20.140625 9.421875 
Q 21.96875 7.515625 27.59375 7.515625 
L 36.8125 7.515625 
L 36.8125 0 
L 27.59375 0 
Q 17.1875 0 13.234375 3.875 
Q 9.28125 7.765625 9.28125 18.015625 
L 9.28125 47.703125 
L 2.6875 47.703125 
L 2.6875 54.6875 
L 9.28125 54.6875 
L 9.28125 70.21875 
z
" id="DejaVuSans-116"/>
       <path d="M 56.203125 29.59375 
L 56.203125 25.203125 
L 14.890625 25.203125 
Q 15.484375 15.921875 20.484375 11.0625 
Q 25.484375 6.203125 34.421875 6.203125 
Q 39.59375 6.203125 44.453125 7.46875 
Q 49.3125 8.734375 54.109375 11.28125 
L 54.109375 2.78125 
Q 49.265625 0.734375 44.1875 -0.34375 
Q 39.109375 -1.421875 33.890625 -1.421875 
Q 20.796875 -1.421875 13.15625 6.1875 
Q 5.515625 13.8125 5.515625 26.8125 
Q 5.515625 40.234375 12.765625 48.109375 
Q 20.015625 56 32.328125 56 
Q 43.359375 56 49.78125 48.890625 
Q 56.203125 41.796875 56.203125 29.59375 
z
M 47.21875 32.234375 
Q 47.125 39.59375 43.09375 43.984375 
Q 39.0625 48.390625 32.421875 48.390625 
Q 24.90625 48.390625 20.390625 44.140625 
Q 15.875 39.890625 15.1875 32.171875 
z
" id="DejaVuSans-101"/>
      </defs>
      <use xlink:href="#DejaVuSans-68"/>
      <use x="77.001953" xlink:href="#DejaVuSans-97"/>
      <use x="138.28125" xlink:href="#DejaVuSans-116"/>
      <use x="177.490234" xlink:href="#DejaVuSans-101"/>
     </g>
    </g>
   </g>
   <g id="matplotlib.axis_2">
    <g id="ytick_1">
     <g id="line2d_7">
      <defs>
       <path d="M 0 0 
L -3.5 0 
" id="m6078e60334" style="stroke:#000000;stroke-width:0.8;"/>
      </defs>
      <g>
       <use style="stroke:#000000;stroke-width:0.8;" x="57.6" xlink:href="#m6078e60334" y="294.266182"/>
      </g>
     </g>
     <g id="text_8">
      <!-- 140 -->
      <g transform="translate(31.5125 298.065401)scale(0.1 -0.1)">
       <defs>
        <path d="M 37.796875 64.3125 
L 12.890625 25.390625 
L 37.796875 25.390625 
z
M 35.203125 72.90625 
L 47.609375 72.90625 
L 47.609375 25.390625 
L 58.015625 25.390625 
L 58.015625 17.1875 
L 47.609375 17.1875 
L 47.609375 0 
L 37.796875 0 
L 37.796875 17.1875 
L 4.890625 17.1875 
L 4.890625 26.703125 
z
" id="DejaVuSans-52"/>
       </defs>
       <use xlink:href="#DejaVuSans-49"/>
       <use x="63.623047" xlink:href="#DejaVuSans-52"/>
       <use x="127.246094" xlink:href="#DejaVuSans-48"/>
      </g>
     </g>
    </g>
    <g id="ytick_2">
     <g id="line2d_8">
      <g>
       <use style="stroke:#000000;stroke-width:0.8;" x="57.6" xlink:href="#m6078e60334" y="256.671776"/>
      </g>
     </g>
     <g id="text_9">
      <!-- 160 -->
      <g transform="translate(31.5125 260.470995)scale(0.1 -0.1)">
       <defs>
        <path d="M 33.015625 40.375 
Q 26.375 40.375 22.484375 35.828125 
Q 18.609375 31.296875 18.609375 23.390625 
Q 18.609375 15.53125 22.484375 10.953125 
Q 26.375 6.390625 33.015625 6.390625 
Q 39.65625 6.390625 43.53125 10.953125 
Q 47.40625 15.53125 47.40625 23.390625 
Q 47.40625 31.296875 43.53125 35.828125 
Q 39.65625 40.375 33.015625 40.375 
z
M 52.59375 71.296875 
L 52.59375 62.3125 
Q 48.875 64.0625 45.09375 64.984375 
Q 41.3125 65.921875 37.59375 65.921875 
Q 27.828125 65.921875 22.671875 59.328125 
Q 17.53125 52.734375 16.796875 39.40625 
Q 19.671875 43.65625 24.015625 45.921875 
Q 28.375 48.1875 33.59375 48.1875 
Q 44.578125 48.1875 50.953125 41.515625 
Q 57.328125 34.859375 57.328125 23.390625 
Q 57.328125 12.15625 50.6875 5.359375 
Q 44.046875 -1.421875 33.015625 -1.421875 
Q 20.359375 -1.421875 13.671875 8.265625 
Q 6.984375 17.96875 6.984375 36.375 
Q 6.984375 53.65625 15.1875 63.9375 
Q 23.390625 74.21875 37.203125 74.21875 
Q 40.921875 74.21875 44.703125 73.484375 
Q 48.484375 72.75 52.59375 71.296875 
z
" id="DejaVuSans-54"/>
       </defs>
       <use xlink:href="#DejaVuSans-49"/>
       <use x="63.623047" xlink:href="#DejaVuSans-54"/>
       <use x="127.246094" xlink:href="#DejaVuSans-48"/>
      </g>
     </g>
    </g>
    <g id="ytick_3">
     <g id="line2d_9">
      <g>
       <use style="stroke:#000000;stroke-width:0.8;" x="57.6" xlink:href="#m6078e60334" y="219.077371"/>
      </g>
     </g>
     <g id="text_10">
      <!-- 180 -->
      <g transform="translate(31.5125 222.876589)scale(0.1 -0.1)">
       <defs>
        <path d="M 31.78125 34.625 
Q 24.75 34.625 20.71875 30.859375 
Q 16.703125 27.09375 16.703125 20.515625 
Q 16.703125 13.921875 20.71875 10.15625 
Q 24.75 6.390625 31.78125 6.390625 
Q 38.8125 6.390625 42.859375 10.171875 
Q 46.921875 13.96875 46.921875 20.515625 
Q 46.921875 27.09375 42.890625 30.859375 
Q 38.875 34.625 31.78125 34.625 
z
M 21.921875 38.8125 
Q 15.578125 40.375 12.03125 44.71875 
Q 8.5 49.078125 8.5 55.328125 
Q 8.5 64.0625 14.71875 69.140625 
Q 20.953125 74.21875 31.78125 74.21875 
Q 42.671875 74.21875 48.875 69.140625 
Q 55.078125 64.0625 55.078125 55.328125 
Q 55.078125 49.078125 51.53125 44.71875 
Q 48 40.375 41.703125 38.8125 
Q 48.828125 37.15625 52.796875 32.3125 
Q 56.78125 27.484375 56.78125 20.515625 
Q 56.78125 9.90625 50.3125 4.234375 
Q 43.84375 -1.421875 31.78125 -1.421875 
Q 19.734375 -1.421875 13.25 4.234375 
Q 6.78125 9.90625 6.78125 20.515625 
Q 6.78125 27.484375 10.78125 32.3125 
Q 14.796875 37.15625 21.921875 38.8125 
z
M 18.3125 54.390625 
Q 18.3125 48.734375 21.84375 45.5625 
Q 25.390625 42.390625 31.78125 42.390625 
Q 38.140625 42.390625 41.71875 45.5625 
Q 45.3125 48.734375 45.3125 54.390625 
Q 45.3125 60.0625 41.71875 63.234375 
Q 38.140625 66.40625 31.78125 66.40625 
Q 25.390625 66.40625 21.84375 63.234375 
Q 18.3125 60.0625 18.3125 54.390625 
z
" id="DejaVuSans-56"/>
       </defs>
       <use xlink:href="#DejaVuSans-49"/>
       <use x="63.623047" xlink:href="#DejaVuSans-56"/>
       <use x="127.246094" xlink:href="#DejaVuSans-48"/>
      </g>
     </g>
    </g>
    <g id="ytick_4">
     <g id="line2d_10">
      <g>
       <use style="stroke:#000000;stroke-width:0.8;" x="57.6" xlink:href="#m6078e60334" y="181.482965"/>
      </g>
     </g>
     <g id="text_11">
      <!-- 200 -->
      <g transform="translate(31.5125 185.282184)scale(0.1 -0.1)">
       <use xlink:href="#DejaVuSans-50"/>
       <use x="63.623047" xlink:href="#DejaVuSans-48"/>
       <use x="127.246094" xlink:href="#DejaVuSans-48"/>
      </g>
     </g>
    </g>
    <g id="ytick_5">
     <g id="line2d_11">
      <g>
       <use style="stroke:#000000;stroke-width:0.8;" x="57.6" xlink:href="#m6078e60334" y="143.888559"/>
      </g>
     </g>
     <g id="text_12">
      <!-- 220 -->
      <g transform="translate(31.5125 147.687778)scale(0.1 -0.1)">
       <use xlink:href="#DejaVuSans-50"/>
       <use x="63.623047" xlink:href="#DejaVuSans-50"/>
       <use x="127.246094" xlink:href="#DejaVuSans-48"/>
      </g>
     </g>
    </g>
    <g id="ytick_6">
     <g id="line2d_12">
      <g>
       <use style="stroke:#000000;stroke-width:0.8;" x="57.6" xlink:href="#m6078e60334" y="106.294154"/>
      </g>
     </g>
     <g id="text_13">
      <!-- 240 -->
      <g transform="translate(31.5125 110.093373)scale(0.1 -0.1)">
       <use xlink:href="#DejaVuSans-50"/>
       <use x="63.623047" xlink:href="#DejaVuSans-52"/>
       <use x="127.246094" xlink:href="#DejaVuSans-48"/>
      </g>
     </g>
    </g>
    <g id="ytick_7">
     <g id="line2d_13">
      <g>
       <use style="stroke:#000000;stroke-width:0.8;" x="57.6" xlink:href="#m6078e60334" y="68.699748"/>
      </g>
     </g>
     <g id="text_14">
      <!-- 260 -->
      <g transform="translate(31.5125 72.498967)scale(0.1 -0.1)">
       <use xlink:href="#DejaVuSans-50"/>
       <use x="63.623047" xlink:href="#DejaVuSans-54"/>
       <use x="127.246094" xlink:href="#DejaVuSans-48"/>
      </g>
     </g>
    </g>
    <g id="text_15">
     <!-- Price -->
     <g transform="translate(25.432812 186.725656)rotate(-90)scale(0.1 -0.1)">
      <defs>
       <path d="M 19.671875 64.796875 
L 19.671875 37.40625 
L 32.078125 37.40625 
Q 38.96875 37.40625 42.71875 40.96875 
Q 46.484375 44.53125 46.484375 51.125 
Q 46.484375 57.671875 42.71875 61.234375 
Q 38.96875 64.796875 32.078125 64.796875 
z
M 9.8125 72.90625 
L 32.078125 72.90625 
Q 44.34375 72.90625 50.609375 67.359375 
Q 56.890625 61.8125 56.890625 51.125 
Q 56.890625 40.328125 50.609375 34.8125 
Q 44.34375 29.296875 32.078125 29.296875 
L 19.671875 29.296875 
L 19.671875 0 
L 9.8125 0 
z
" id="DejaVuSans-80"/>
       <path d="M 41.109375 46.296875 
Q 39.59375 47.171875 37.8125 47.578125 
Q 36.03125 48 33.890625 48 
Q 26.265625 48 22.1875 43.046875 
Q 18.109375 38.09375 18.109375 28.8125 
L 18.109375 0 
L 9.078125 0 
L 9.078125 54.6875 
L 18.109375 54.6875 
L 18.109375 46.1875 
Q 20.953125 51.171875 25.484375 53.578125 
Q 30.03125 56 36.53125 56 
Q 37.453125 56 38.578125 55.875 
Q 39.703125 55.765625 41.0625 55.515625 
z
" id="DejaVuSans-114"/>
       <path d="M 9.421875 54.6875 
L 18.40625 54.6875 
L 18.40625 0 
L 9.421875 0 
z
M 9.421875 75.984375 
L 18.40625 75.984375 
L 18.40625 64.59375 
L 9.421875 64.59375 
z
" id="DejaVuSans-105"/>
       <path d="M 48.78125 52.59375 
L 48.78125 44.1875 
Q 44.96875 46.296875 41.140625 47.34375 
Q 37.3125 48.390625 33.40625 48.390625 
Q 24.65625 48.390625 19.8125 42.84375 
Q 14.984375 37.3125 14.984375 27.296875 
Q 14.984375 17.28125 19.8125 11.734375 
Q 24.65625 6.203125 33.40625 6.203125 
Q 37.3125 6.203125 41.140625 7.25 
Q 44.96875 8.296875 48.78125 10.40625 
L 48.78125 2.09375 
Q 45.015625 0.34375 40.984375 -0.53125 
Q 36.96875 -1.421875 32.421875 -1.421875 
Q 20.0625 -1.421875 12.78125 6.34375 
Q 5.515625 14.109375 5.515625 27.296875 
Q 5.515625 40.671875 12.859375 48.328125 
Q 20.21875 56 33.015625 56 
Q 37.15625 56 41.109375 55.140625 
Q 45.0625 54.296875 48.78125 52.59375 
z
" id="DejaVuSans-99"/>
      </defs>
      <use xlink:href="#DejaVuSans-80"/>
      <use x="58.552734" xlink:href="#DejaVuSans-114"/>
      <use x="99.666016" xlink:href="#DejaVuSans-105"/>
      <use x="127.449219" xlink:href="#DejaVuSans-99"/>
      <use x="182.429688" xlink:href="#DejaVuSans-101"/>
     </g>
    </g>
   </g>
   <g id="line2d_14">
    <path clip-path="url(#p95060a21b9)" d="M 73.832727 180.167161 
L 75.115947 180.919049 
L 76.399166 174.528 
L 77.682386 172.17835 
L 78.965605 172.742266 
L 80.248825 162.96772 
L 81.532045 177.629538 
L 82.815264 171.23849 
L 84.098484 179.227301 
L 85.381703 179.791217 
L 86.664923 182.046881 
L 87.948142 189.283804 
L 89.231362 197.460587 
L 90.514581 194.171077 
L 91.797801 185.430378 
L 93.08102 191.915413 
L 94.36424 184.208559 
L 95.64746 187.968 
L 96.930679 187.122126 
L 98.213899 191.915413 
L 99.497118 185.712336 
L 100.780338 187.968 
L 102.063557 192.573315 
L 104.629996 189.659748 
L 105.913216 188.531916 
L 107.196436 187.122126 
L 108.479655 171.426462 
L 109.762875 175.091916 
L 111.046094 187.310098 
L 112.329314 183.362685 
L 113.612533 178.381427 
L 114.895753 166.539189 
L 116.178972 159.396252 
L 117.462192 159.866182 
L 118.745411 164.001566 
L 120.028631 158.832336 
L 121.311851 163.155692 
L 122.59507 161.933874 
L 123.87829 168.230937 
L 125.161509 167.197091 
L 126.444729 162.02786 
L 127.727948 155.824783 
L 129.011168 151.501427 
L 130.294387 152.253315 
L 131.577607 151.125483 
L 132.860826 155.072895 
L 134.144046 162.873734 
L 135.427266 173.024224 
L 136.710485 190.223664 
L 137.993705 180.073175 
L 139.276924 168.700867 
L 140.560144 169.452755 
L 141.843363 167.385063 
L 143.126583 163.061706 
L 144.409802 168.136951 
L 145.693022 158.926322 
L 146.976241 160.054154 
L 149.542681 170.862545 
L 150.8259 174.340028 
L 152.10912 179.885203 
L 153.392339 170.580587 
L 154.675559 171.332476 
L 155.958778 162.873734 
L 157.241998 159.67821 
L 158.525217 155.918769 
L 159.808437 159.67821 
L 161.091656 171.990378 
L 162.374876 177.253594 
L 163.658096 160.524084 
L 164.941315 166.257231 
L 166.224535 173.212196 
L 167.507754 171.896392 
L 168.790974 193.325203 
L 170.074193 199.434294 
L 171.357413 227.536112 
L 172.640632 204.509538 
L 175.207072 235.242965 
L 176.490291 257.329678 
L 177.773511 268.044084 
L 179.05673 255.919888 
L 180.33995 283.269818 
L 181.623169 290.224783 
L 182.906389 295.488 
L 184.189608 286.653315 
L 185.472828 291.352615 
L 186.756047 278.75849 
L 188.039267 264.754573 
L 189.322487 262.968839 
L 190.605706 269.829818 
L 191.888926 258.551497 
L 193.172145 276.032895 
L 194.455365 258.927441 
L 195.738584 247.273175 
L 197.021804 240.600168 
L 198.305023 238.43849 
L 199.588243 232.329399 
L 202.154682 242.479888 
L 203.437902 225.656392 
L 204.721121 235.148979 
L 206.004341 241.728 
L 207.28756 233.551217 
L 208.57078 242.19793 
L 209.853999 238.814434 
L 211.137219 234.773035 
L 212.420438 252.254434 
L 213.703658 247.649119 
L 214.986877 241.915972 
L 217.553317 239.096392 
L 218.836536 230.449678 
L 220.119756 228.100028 
L 221.402975 213.43821 
L 222.686195 214.37807 
L 223.969414 215.693874 
L 225.252634 233.833175 
L 226.535853 229.22786 
L 227.819073 219.735273 
L 229.102292 217.19765 
L 230.385512 206.013315 
L 231.668732 203.005762 
L 232.951951 205.073455 
L 234.235171 197.836531 
L 235.51839 197.366601 
L 236.80161 202.253874 
L 238.084829 198.024503 
L 239.368049 204.509538 
L 240.651268 206.389259 
L 241.934488 190.693594 
L 244.500927 204.415552 
L 245.784147 196.520727 
L 247.067366 201.220028 
L 248.350586 193.325203 
L 249.633805 197.460587 
L 250.917025 199.152336 
L 252.200244 205.637371 
L 253.483464 205.261427 
L 254.766683 198.776392 
L 256.049903 198.212476 
L 257.333123 194.171077 
L 258.616342 202.723804 
L 259.899562 207.329119 
L 261.182781 204.039608 
L 262.466001 204.885483 
L 263.74922 193.513175 
L 265.03244 196.144783 
L 266.315659 193.325203 
L 267.598879 189.37779 
L 268.882098 192.949259 
L 270.165318 194.171077 
L 271.448538 189.84772 
L 272.731757 177.723524 
L 274.014977 186.746182 
L 275.298196 184.396531 
L 276.581416 199.340308 
L 277.864635 202.81779 
L 279.147855 195.580867 
L 280.431074 193.795133 
L 281.714294 189.565762 
L 282.997513 172.17835 
L 284.280733 179.791217 
L 285.563953 185.336392 
L 286.847172 179.697231 
L 288.130392 168.042965 
L 289.413611 150.091636 
L 290.696831 152.159329 
L 291.98005 141.538909 
L 293.26327 143.700587 
L 294.546489 141.726881 
L 295.829709 140.974993 
L 297.112928 142.196811 
L 298.396148 138.343385 
L 299.679368 144.734434 
L 300.962587 140.411077 
L 302.245807 138.719329 
L 303.529026 140.505063 
L 304.812246 140.129119 
L 306.095465 142.478769 
L 307.378685 145.110378 
L 308.661904 128.474853 
L 309.945124 130.824503 
L 311.228344 133.832056 
L 312.511563 132.704224 
L 316.361222 142.290797 
L 317.644441 141.350937 
L 318.927661 139.283245 
L 320.21088 161.651916 
L 321.4941 157.046601 
L 322.777319 149.05779 
L 324.060539 154.039049 
L 325.343759 165.505343 
L 326.626978 161.651916 
L 327.910198 169.264783 
L 329.193417 163.719608 
L 330.476637 157.140587 
L 331.759856 158.080448 
L 333.043076 160.61807 
L 334.326295 148.681846 
L 335.609515 146.520168 
L 336.892734 143.324643 
L 338.175954 143.888559 
L 339.459174 163.155692 
L 340.742393 168.700867 
L 342.025613 164.095552 
L 343.308832 184.772476 
L 344.592052 171.144503 
L 345.875271 159.584224 
L 347.158491 150.185622 
L 348.44171 149.52772 
L 349.72493 141.632895 
L 351.008149 141.350937 
L 352.291369 133.926042 
L 353.574589 116.068699 
L 354.857808 109.771636 
L 356.141028 107.515972 
L 357.424247 109.301706 
L 358.707467 103.004643 
L 359.990686 93.888 
L 361.273906 99.997091 
L 362.557125 91.256392 
L 363.840345 92.00828 
L 365.123564 84.771357 
L 366.406784 81.199888 
L 367.690004 80.729958 
L 368.973223 92.384224 
L 370.256443 96.801566 
L 371.539662 76.500587 
L 372.822882 84.113455 
L 374.106101 79.97807 
L 375.389321 69.263664 
L 376.67254 67.759888 
L 377.95576 64.940308 
L 379.23898 60.428979 
L 380.522199 76.688559 
L 381.805419 91.256392 
L 383.088638 88.812755 
L 384.371858 87.684923 
L 385.655077 69.263664 
L 386.938297 63.342545 
L 388.221516 73.023105 
L 389.504736 70.579469 
L 390.787955 53.568 
L 392.071175 64.940308 
L 393.354395 71.143385 
L 394.637614 74.150937 
L 395.920834 72.177231 
L 397.204053 77.816392 
L 397.204053 77.816392 
" style="fill:none;stroke:#000000;stroke-dasharray:5.55,2.4;stroke-dashoffset:0;stroke-width:1.5;"/>
   </g>
   <g id="line2d_15">
    <defs>
     <path d="M 0 3 
C 0.795609 3 1.55874 2.683901 2.12132 2.12132 
C 2.683901 1.55874 3 0.795609 3 0 
C 3 -0.795609 2.683901 -1.55874 2.12132 -2.12132 
C 1.55874 -2.683901 0.795609 -3 0 -3 
C -0.795609 -3 -1.55874 -2.683901 -2.12132 -2.12132 
C -2.683901 -1.55874 -3 -0.795609 -3 0 
C -3 0.795609 -2.683901 1.55874 -2.12132 2.12132 
C -1.55874 2.683901 -0.795609 3 0 3 
z
" id="m75496d4ea0" style="stroke:#bfbf00;"/>
    </defs>
    <g clip-path="url(#p95060a21b9)">
     <use style="fill:#bfbf00;stroke:#bfbf00;" x="75.115947" xlink:href="#m75496d4ea0" y="180.919049"/>
     <use style="fill:#bfbf00;stroke:#bfbf00;" x="89.231362" xlink:href="#m75496d4ea0" y="197.460587"/>
     <use style="fill:#bfbf00;stroke:#bfbf00;" x="98.213899" xlink:href="#m75496d4ea0" y="191.915413"/>
     <use style="fill:#bfbf00;stroke:#bfbf00;" x="102.063557" xlink:href="#m75496d4ea0" y="192.573315"/>
     <use style="fill:#bfbf00;stroke:#bfbf00;" x="111.046094" xlink:href="#m75496d4ea0" y="187.310098"/>
     <use style="fill:#bfbf00;stroke:#bfbf00;" x="118.745411" xlink:href="#m75496d4ea0" y="164.001566"/>
     <use style="fill:#bfbf00;stroke:#bfbf00;" x="123.87829" xlink:href="#m75496d4ea0" y="168.230937"/>
     <use style="fill:#bfbf00;stroke:#bfbf00;" x="136.710485" xlink:href="#m75496d4ea0" y="190.223664"/>
     <use style="fill:#bfbf00;stroke:#bfbf00;" x="144.409802" xlink:href="#m75496d4ea0" y="168.136951"/>
     <use style="fill:#bfbf00;stroke:#bfbf00;" x="152.10912" xlink:href="#m75496d4ea0" y="179.885203"/>
     <use style="fill:#bfbf00;stroke:#bfbf00;" x="162.374876" xlink:href="#m75496d4ea0" y="177.253594"/>
     <use style="fill:#bfbf00;stroke:#bfbf00;" x="171.357413" xlink:href="#m75496d4ea0" y="227.536112"/>
     <use style="fill:#bfbf00;stroke:#bfbf00;" x="177.773511" xlink:href="#m75496d4ea0" y="268.044084"/>
     <use style="fill:#bfbf00;stroke:#bfbf00;" x="182.906389" xlink:href="#m75496d4ea0" y="295.488"/>
     <use style="fill:#bfbf00;stroke:#bfbf00;" x="190.605706" xlink:href="#m75496d4ea0" y="269.829818"/>
     <use style="fill:#bfbf00;stroke:#bfbf00;" x="193.172145" xlink:href="#m75496d4ea0" y="276.032895"/>
     <use style="fill:#bfbf00;stroke:#bfbf00;" x="202.154682" xlink:href="#m75496d4ea0" y="242.479888"/>
     <use style="fill:#bfbf00;stroke:#bfbf00;" x="206.004341" xlink:href="#m75496d4ea0" y="241.728"/>
     <use style="fill:#bfbf00;stroke:#bfbf00;" x="208.57078" xlink:href="#m75496d4ea0" y="242.19793"/>
     <use style="fill:#bfbf00;stroke:#bfbf00;" x="212.420438" xlink:href="#m75496d4ea0" y="252.254434"/>
     <use style="fill:#bfbf00;stroke:#bfbf00;" x="225.252634" xlink:href="#m75496d4ea0" y="233.833175"/>
     <use style="fill:#bfbf00;stroke:#bfbf00;" x="240.651268" xlink:href="#m75496d4ea0" y="206.389259"/>
     <use style="fill:#bfbf00;stroke:#bfbf00;" x="244.500927" xlink:href="#m75496d4ea0" y="204.415552"/>
     <use style="fill:#bfbf00;stroke:#bfbf00;" x="252.200244" xlink:href="#m75496d4ea0" y="205.637371"/>
     <use style="fill:#bfbf00;stroke:#bfbf00;" x="259.899562" xlink:href="#m75496d4ea0" y="207.329119"/>
     <use style="fill:#bfbf00;stroke:#bfbf00;" x="270.165318" xlink:href="#m75496d4ea0" y="194.171077"/>
     <use style="fill:#bfbf00;stroke:#bfbf00;" x="277.864635" xlink:href="#m75496d4ea0" y="202.81779"/>
     <use style="fill:#bfbf00;stroke:#bfbf00;" x="285.563953" xlink:href="#m75496d4ea0" y="185.336392"/>
     <use style="fill:#bfbf00;stroke:#bfbf00;" x="293.26327" xlink:href="#m75496d4ea0" y="143.700587"/>
     <use style="fill:#bfbf00;stroke:#bfbf00;" x="297.112928" xlink:href="#m75496d4ea0" y="142.196811"/>
     <use style="fill:#bfbf00;stroke:#bfbf00;" x="299.679368" xlink:href="#m75496d4ea0" y="144.734434"/>
     <use style="fill:#bfbf00;stroke:#bfbf00;" x="307.378685" xlink:href="#m75496d4ea0" y="145.110378"/>
     <use style="fill:#bfbf00;stroke:#bfbf00;" x="316.361222" xlink:href="#m75496d4ea0" y="142.290797"/>
     <use style="fill:#bfbf00;stroke:#bfbf00;" x="320.21088" xlink:href="#m75496d4ea0" y="161.651916"/>
     <use style="fill:#bfbf00;stroke:#bfbf00;" x="327.910198" xlink:href="#m75496d4ea0" y="169.264783"/>
     <use style="fill:#bfbf00;stroke:#bfbf00;" x="333.043076" xlink:href="#m75496d4ea0" y="160.61807"/>
     <use style="fill:#bfbf00;stroke:#bfbf00;" x="343.308832" xlink:href="#m75496d4ea0" y="184.772476"/>
     <use style="fill:#bfbf00;stroke:#bfbf00;" x="370.256443" xlink:href="#m75496d4ea0" y="96.801566"/>
     <use style="fill:#bfbf00;stroke:#bfbf00;" x="372.822882" xlink:href="#m75496d4ea0" y="84.113455"/>
     <use style="fill:#bfbf00;stroke:#bfbf00;" x="381.805419" xlink:href="#m75496d4ea0" y="91.256392"/>
     <use style="fill:#bfbf00;stroke:#bfbf00;" x="388.221516" xlink:href="#m75496d4ea0" y="73.023105"/>
    </g>
   </g>
   <g id="line2d_16">
    <path clip-path="url(#p95060a21b9)" d="M 73.832727 236.093491 
L 397.204053 136.314594 
" style="fill:none;stroke:#bfbf00;stroke-dasharray:5.55,2.4;stroke-dashoffset:0;stroke-width:1.5;"/>
   </g>
   <g id="line2d_17">
    <defs>
     <path d="M 0 3 
C 0.795609 3 1.55874 2.683901 2.12132 2.12132 
C 2.683901 1.55874 3 0.795609 3 0 
C 3 -0.795609 2.683901 -1.55874 2.12132 -2.12132 
C 1.55874 -2.683901 0.795609 -3 0 -3 
C -0.795609 -3 -1.55874 -2.683901 -2.12132 -2.12132 
C -2.683901 -1.55874 -3 -0.795609 -3 0 
C -3 0.795609 -2.683901 1.55874 -2.12132 2.12132 
C -1.55874 2.683901 -0.795609 3 0 3 
z
" id="md9716afbb3" style="stroke:#0000ff;"/>
    </defs>
    <g clip-path="url(#p95060a21b9)">
     <use style="fill:#0000ff;stroke:#0000ff;" x="80.248825" xlink:href="#md9716afbb3" y="162.96772"/>
     <use style="fill:#0000ff;stroke:#0000ff;" x="94.36424" xlink:href="#md9716afbb3" y="184.208559"/>
     <use style="fill:#0000ff;stroke:#0000ff;" x="99.497118" xlink:href="#md9716afbb3" y="185.712336"/>
     <use style="fill:#0000ff;stroke:#0000ff;" x="108.479655" xlink:href="#md9716afbb3" y="171.426462"/>
     <use style="fill:#0000ff;stroke:#0000ff;" x="116.178972" xlink:href="#md9716afbb3" y="159.396252"/>
     <use style="fill:#0000ff;stroke:#0000ff;" x="120.028631" xlink:href="#md9716afbb3" y="158.832336"/>
     <use style="fill:#0000ff;stroke:#0000ff;" x="131.577607" xlink:href="#md9716afbb3" y="151.125483"/>
     <use style="fill:#0000ff;stroke:#0000ff;" x="143.126583" xlink:href="#md9716afbb3" y="163.061706"/>
     <use style="fill:#0000ff;stroke:#0000ff;" x="145.693022" xlink:href="#md9716afbb3" y="158.926322"/>
     <use style="fill:#0000ff;stroke:#0000ff;" x="158.525217" xlink:href="#md9716afbb3" y="155.918769"/>
     <use style="fill:#0000ff;stroke:#0000ff;" x="163.658096" xlink:href="#md9716afbb3" y="160.524084"/>
     <use style="fill:#0000ff;stroke:#0000ff;" x="172.640632" xlink:href="#md9716afbb3" y="204.509538"/>
     <use style="fill:#0000ff;stroke:#0000ff;" x="179.05673" xlink:href="#md9716afbb3" y="255.919888"/>
     <use style="fill:#0000ff;stroke:#0000ff;" x="189.322487" xlink:href="#md9716afbb3" y="262.968839"/>
     <use style="fill:#0000ff;stroke:#0000ff;" x="191.888926" xlink:href="#md9716afbb3" y="258.551497"/>
     <use style="fill:#0000ff;stroke:#0000ff;" x="199.588243" xlink:href="#md9716afbb3" y="232.329399"/>
     <use style="fill:#0000ff;stroke:#0000ff;" x="203.437902" xlink:href="#md9716afbb3" y="225.656392"/>
     <use style="fill:#0000ff;stroke:#0000ff;" x="207.28756" xlink:href="#md9716afbb3" y="233.551217"/>
     <use style="fill:#0000ff;stroke:#0000ff;" x="211.137219" xlink:href="#md9716afbb3" y="234.773035"/>
     <use style="fill:#0000ff;stroke:#0000ff;" x="221.402975" xlink:href="#md9716afbb3" y="213.43821"/>
     <use style="fill:#0000ff;stroke:#0000ff;" x="235.51839" xlink:href="#md9716afbb3" y="197.366601"/>
     <use style="fill:#0000ff;stroke:#0000ff;" x="241.934488" xlink:href="#md9716afbb3" y="190.693594"/>
     <use style="fill:#0000ff;stroke:#0000ff;" x="248.350586" xlink:href="#md9716afbb3" y="193.325203"/>
     <use style="fill:#0000ff;stroke:#0000ff;" x="257.333123" xlink:href="#md9716afbb3" y="194.171077"/>
     <use style="fill:#0000ff;stroke:#0000ff;" x="267.598879" xlink:href="#md9716afbb3" y="189.37779"/>
     <use style="fill:#0000ff;stroke:#0000ff;" x="272.731757" xlink:href="#md9716afbb3" y="177.723524"/>
     <use style="fill:#0000ff;stroke:#0000ff;" x="282.997513" xlink:href="#md9716afbb3" y="172.17835"/>
     <use style="fill:#0000ff;stroke:#0000ff;" x="291.98005" xlink:href="#md9716afbb3" y="141.538909"/>
     <use style="fill:#0000ff;stroke:#0000ff;" x="295.829709" xlink:href="#md9716afbb3" y="140.974993"/>
     <use style="fill:#0000ff;stroke:#0000ff;" x="298.396148" xlink:href="#md9716afbb3" y="138.343385"/>
     <use style="fill:#0000ff;stroke:#0000ff;" x="302.245807" xlink:href="#md9716afbb3" y="138.719329"/>
     <use style="fill:#0000ff;stroke:#0000ff;" x="308.661904" xlink:href="#md9716afbb3" y="128.474853"/>
     <use style="fill:#0000ff;stroke:#0000ff;" x="318.927661" xlink:href="#md9716afbb3" y="139.283245"/>
     <use style="fill:#0000ff;stroke:#0000ff;" x="322.777319" xlink:href="#md9716afbb3" y="149.05779"/>
     <use style="fill:#0000ff;stroke:#0000ff;" x="330.476637" xlink:href="#md9716afbb3" y="157.140587"/>
     <use style="fill:#0000ff;stroke:#0000ff;" x="336.892734" xlink:href="#md9716afbb3" y="143.324643"/>
     <use style="fill:#0000ff;stroke:#0000ff;" x="367.690004" xlink:href="#md9716afbb3" y="80.729958"/>
     <use style="fill:#0000ff;stroke:#0000ff;" x="371.539662" xlink:href="#md9716afbb3" y="76.500587"/>
     <use style="fill:#0000ff;stroke:#0000ff;" x="379.23898" xlink:href="#md9716afbb3" y="60.428979"/>
     <use style="fill:#0000ff;stroke:#0000ff;" x="386.938297" xlink:href="#md9716afbb3" y="63.342545"/>
     <use style="fill:#0000ff;stroke:#0000ff;" x="390.787955" xlink:href="#md9716afbb3" y="53.568"/>
    </g>
   </g>
   <g id="line2d_18">
    <path clip-path="url(#p95060a21b9)" d="M 73.832727 222.165897 
L 397.204053 112.301138 
" style="fill:none;stroke:#0000ff;stroke-dasharray:5.55,2.4;stroke-dashoffset:0;stroke-width:1.5;"/>
   </g>
   <g id="line2d_19">
    <path clip-path="url(#p95060a21b9)" d="M 182.906389 295.466306 
L 321.4941 160.352213 
" style="fill:none;stroke:#008000;stroke-dasharray:5.55,2.4;stroke-dashoffset:0;stroke-width:1.5;"/>
   </g>
   <g id="line2d_20">
    <path clip-path="url(#p95060a21b9)" d="M 297.112928 142.282684 
L 398.487273 235.535255 
" style="fill:none;stroke:#008000;stroke-dasharray:5.55,2.4;stroke-dashoffset:0;stroke-width:1.5;"/>
   </g>
   <g id="line2d_21">
    <path clip-path="url(#p95060a21b9)" d="M 212.420438 252.339909 
L 334.326295 159.744763 
" style="fill:none;stroke:#008000;stroke-dasharray:5.55,2.4;stroke-dashoffset:0;stroke-width:1.5;"/>
   </g>
   <g id="line2d_22">
    <path clip-path="url(#p95060a21b9)" d="M 172.640632 204.504705 
L 308.661904 132.845218 
" style="fill:none;stroke:#ff0000;stroke-dasharray:5.55,2.4;stroke-dashoffset:0;stroke-width:1.5;"/>
   </g>
   <g id="line2d_23">
    <path clip-path="url(#p95060a21b9)" d="M 158.525217 155.874019 
L 225.252634 216.958327 
" style="fill:none;stroke:#ff0000;stroke-dasharray:5.55,2.4;stroke-dashoffset:0;stroke-width:1.5;"/>
   </g>
   <g id="line2d_24">
    <path clip-path="url(#p95060a21b9)" d="M 158.525217 155.874019 
L 225.252634 216.958327 
" style="fill:none;stroke:#ff0000;stroke-dasharray:5.55,2.4;stroke-dashoffset:0;stroke-width:1.5;"/>
   </g>
   <g id="patch_3">
    <path d="M 57.6 307.584 
L 57.6 41.472 
" style="fill:none;stroke:#000000;stroke-linecap:square;stroke-linejoin:miter;stroke-width:0.8;"/>
   </g>
   <g id="patch_4">
    <path d="M 414.72 307.584 
L 414.72 41.472 
" style="fill:none;stroke:#000000;stroke-linecap:square;stroke-linejoin:miter;stroke-width:0.8;"/>
   </g>
   <g id="patch_5">
    <path d="M 57.6 307.584 
L 414.72 307.584 
" style="fill:none;stroke:#000000;stroke-linecap:square;stroke-linejoin:miter;stroke-width:0.8;"/>
   </g>
   <g id="patch_6">
    <path d="M 57.6 41.472 
L 414.72 41.472 
" style="fill:none;stroke:#000000;stroke-linecap:square;stroke-linejoin:miter;stroke-width:0.8;"/>
   </g>
   <g id="text_16">
    <!-- Prices with Support/Resistance Trend Lines -->
    <g transform="translate(107.924062 35.472)scale(0.12 -0.12)">
     <defs>
      <path d="M 44.28125 53.078125 
L 44.28125 44.578125 
Q 40.484375 46.53125 36.375 47.5 
Q 32.28125 48.484375 27.875 48.484375 
Q 21.1875 48.484375 17.84375 46.4375 
Q 14.5 44.390625 14.5 40.28125 
Q 14.5 37.15625 16.890625 35.375 
Q 19.28125 33.59375 26.515625 31.984375 
L 29.59375 31.296875 
Q 39.15625 29.25 43.1875 25.515625 
Q 47.21875 21.78125 47.21875 15.09375 
Q 47.21875 7.46875 41.1875 3.015625 
Q 35.15625 -1.421875 24.609375 -1.421875 
Q 20.21875 -1.421875 15.453125 -0.5625 
Q 10.6875 0.296875 5.421875 2 
L 5.421875 11.28125 
Q 10.40625 8.6875 15.234375 7.390625 
Q 20.0625 6.109375 24.8125 6.109375 
Q 31.15625 6.109375 34.5625 8.28125 
Q 37.984375 10.453125 37.984375 14.40625 
Q 37.984375 18.0625 35.515625 20.015625 
Q 33.0625 21.96875 24.703125 23.78125 
L 21.578125 24.515625 
Q 13.234375 26.265625 9.515625 29.90625 
Q 5.8125 33.546875 5.8125 39.890625 
Q 5.8125 47.609375 11.28125 51.796875 
Q 16.75 56 26.8125 56 
Q 31.78125 56 36.171875 55.265625 
Q 40.578125 54.546875 44.28125 53.078125 
z
" id="DejaVuSans-115"/>
      <path id="DejaVuSans-32"/>
      <path d="M 4.203125 54.6875 
L 13.1875 54.6875 
L 24.421875 12.015625 
L 35.59375 54.6875 
L 46.1875 54.6875 
L 57.421875 12.015625 
L 68.609375 54.6875 
L 77.59375 54.6875 
L 63.28125 0 
L 52.6875 0 
L 40.921875 44.828125 
L 29.109375 0 
L 18.5 0 
z
" id="DejaVuSans-119"/>
      <path d="M 54.890625 33.015625 
L 54.890625 0 
L 45.90625 0 
L 45.90625 32.71875 
Q 45.90625 40.484375 42.875 44.328125 
Q 39.84375 48.1875 33.796875 48.1875 
Q 26.515625 48.1875 22.3125 43.546875 
Q 18.109375 38.921875 18.109375 30.90625 
L 18.109375 0 
L 9.078125 0 
L 9.078125 75.984375 
L 18.109375 75.984375 
L 18.109375 46.1875 
Q 21.34375 51.125 25.703125 53.5625 
Q 30.078125 56 35.796875 56 
Q 45.21875 56 50.046875 50.171875 
Q 54.890625 44.34375 54.890625 33.015625 
z
" id="DejaVuSans-104"/>
      <path d="M 53.515625 70.515625 
L 53.515625 60.890625 
Q 47.90625 63.578125 42.921875 64.890625 
Q 37.9375 66.21875 33.296875 66.21875 
Q 25.25 66.21875 20.875 63.09375 
Q 16.5 59.96875 16.5 54.203125 
Q 16.5 49.359375 19.40625 46.890625 
Q 22.3125 44.4375 30.421875 42.921875 
L 36.375 41.703125 
Q 47.40625 39.59375 52.65625 34.296875 
Q 57.90625 29 57.90625 20.125 
Q 57.90625 9.515625 50.796875 4.046875 
Q 43.703125 -1.421875 29.984375 -1.421875 
Q 24.8125 -1.421875 18.96875 -0.25 
Q 13.140625 0.921875 6.890625 3.21875 
L 6.890625 13.375 
Q 12.890625 10.015625 18.65625 8.296875 
Q 24.421875 6.59375 29.984375 6.59375 
Q 38.421875 6.59375 43.015625 9.90625 
Q 47.609375 13.234375 47.609375 19.390625 
Q 47.609375 24.75 44.3125 27.78125 
Q 41.015625 30.8125 33.5 32.328125 
L 27.484375 33.5 
Q 16.453125 35.6875 11.515625 40.375 
Q 6.59375 45.0625 6.59375 53.421875 
Q 6.59375 63.09375 13.40625 68.65625 
Q 20.21875 74.21875 32.171875 74.21875 
Q 37.3125 74.21875 42.625 73.28125 
Q 47.953125 72.359375 53.515625 70.515625 
z
" id="DejaVuSans-83"/>
      <path d="M 8.5 21.578125 
L 8.5 54.6875 
L 17.484375 54.6875 
L 17.484375 21.921875 
Q 17.484375 14.15625 20.5 10.265625 
Q 23.53125 6.390625 29.59375 6.390625 
Q 36.859375 6.390625 41.078125 11.03125 
Q 45.3125 15.671875 45.3125 23.6875 
L 45.3125 54.6875 
L 54.296875 54.6875 
L 54.296875 0 
L 45.3125 0 
L 45.3125 8.40625 
Q 42.046875 3.421875 37.71875 1 
Q 33.40625 -1.421875 27.6875 -1.421875 
Q 18.265625 -1.421875 13.375 4.4375 
Q 8.5 10.296875 8.5 21.578125 
z
M 31.109375 56 
z
" id="DejaVuSans-117"/>
      <path d="M 18.109375 8.203125 
L 18.109375 -20.796875 
L 9.078125 -20.796875 
L 9.078125 54.6875 
L 18.109375 54.6875 
L 18.109375 46.390625 
Q 20.953125 51.265625 25.265625 53.625 
Q 29.59375 56 35.59375 56 
Q 45.5625 56 51.78125 48.09375 
Q 58.015625 40.1875 58.015625 27.296875 
Q 58.015625 14.40625 51.78125 6.484375 
Q 45.5625 -1.421875 35.59375 -1.421875 
Q 29.59375 -1.421875 25.265625 0.953125 
Q 20.953125 3.328125 18.109375 8.203125 
z
M 48.6875 27.296875 
Q 48.6875 37.203125 44.609375 42.84375 
Q 40.53125 48.484375 33.40625 48.484375 
Q 26.265625 48.484375 22.1875 42.84375 
Q 18.109375 37.203125 18.109375 27.296875 
Q 18.109375 17.390625 22.1875 11.75 
Q 26.265625 6.109375 33.40625 6.109375 
Q 40.53125 6.109375 44.609375 11.75 
Q 48.6875 17.390625 48.6875 27.296875 
z
" id="DejaVuSans-112"/>
      <path d="M 30.609375 48.390625 
Q 23.390625 48.390625 19.1875 42.75 
Q 14.984375 37.109375 14.984375 27.296875 
Q 14.984375 17.484375 19.15625 11.84375 
Q 23.34375 6.203125 30.609375 6.203125 
Q 37.796875 6.203125 41.984375 11.859375 
Q 46.1875 17.53125 46.1875 27.296875 
Q 46.1875 37.015625 41.984375 42.703125 
Q 37.796875 48.390625 30.609375 48.390625 
z
M 30.609375 56 
Q 42.328125 56 49.015625 48.375 
Q 55.71875 40.765625 55.71875 27.296875 
Q 55.71875 13.875 49.015625 6.21875 
Q 42.328125 -1.421875 30.609375 -1.421875 
Q 18.84375 -1.421875 12.171875 6.21875 
Q 5.515625 13.875 5.515625 27.296875 
Q 5.515625 40.765625 12.171875 48.375 
Q 18.84375 56 30.609375 56 
z
" id="DejaVuSans-111"/>
      <path d="M 25.390625 72.90625 
L 33.6875 72.90625 
L 8.296875 -9.28125 
L 0 -9.28125 
z
" id="DejaVuSans-47"/>
      <path d="M 44.390625 34.1875 
Q 47.5625 33.109375 50.5625 29.59375 
Q 53.5625 26.078125 56.59375 19.921875 
L 66.609375 0 
L 56 0 
L 46.6875 18.703125 
Q 43.0625 26.03125 39.671875 28.421875 
Q 36.28125 30.8125 30.421875 30.8125 
L 19.671875 30.8125 
L 19.671875 0 
L 9.8125 0 
L 9.8125 72.90625 
L 32.078125 72.90625 
Q 44.578125 72.90625 50.734375 67.671875 
Q 56.890625 62.453125 56.890625 51.90625 
Q 56.890625 45.015625 53.6875 40.46875 
Q 50.484375 35.9375 44.390625 34.1875 
z
M 19.671875 64.796875 
L 19.671875 38.921875 
L 32.078125 38.921875 
Q 39.203125 38.921875 42.84375 42.21875 
Q 46.484375 45.515625 46.484375 51.90625 
Q 46.484375 58.296875 42.84375 61.546875 
Q 39.203125 64.796875 32.078125 64.796875 
z
" id="DejaVuSans-82"/>
      <path d="M 54.890625 33.015625 
L 54.890625 0 
L 45.90625 0 
L 45.90625 32.71875 
Q 45.90625 40.484375 42.875 44.328125 
Q 39.84375 48.1875 33.796875 48.1875 
Q 26.515625 48.1875 22.3125 43.546875 
Q 18.109375 38.921875 18.109375 30.90625 
L 18.109375 0 
L 9.078125 0 
L 9.078125 54.6875 
L 18.109375 54.6875 
L 18.109375 46.1875 
Q 21.34375 51.125 25.703125 53.5625 
Q 30.078125 56 35.796875 56 
Q 45.21875 56 50.046875 50.171875 
Q 54.890625 44.34375 54.890625 33.015625 
z
" id="DejaVuSans-110"/>
      <path d="M -0.296875 72.90625 
L 61.375 72.90625 
L 61.375 64.59375 
L 35.5 64.59375 
L 35.5 0 
L 25.59375 0 
L 25.59375 64.59375 
L -0.296875 64.59375 
z
" id="DejaVuSans-84"/>
      <path d="M 45.40625 46.390625 
L 45.40625 75.984375 
L 54.390625 75.984375 
L 54.390625 0 
L 45.40625 0 
L 45.40625 8.203125 
Q 42.578125 3.328125 38.25 0.953125 
Q 33.9375 -1.421875 27.875 -1.421875 
Q 17.96875 -1.421875 11.734375 6.484375 
Q 5.515625 14.40625 5.515625 27.296875 
Q 5.515625 40.1875 11.734375 48.09375 
Q 17.96875 56 27.875 56 
Q 33.9375 56 38.25 53.625 
Q 42.578125 51.265625 45.40625 46.390625 
z
M 14.796875 27.296875 
Q 14.796875 17.390625 18.875 11.75 
Q 22.953125 6.109375 30.078125 6.109375 
Q 37.203125 6.109375 41.296875 11.75 
Q 45.40625 17.390625 45.40625 27.296875 
Q 45.40625 37.203125 41.296875 42.84375 
Q 37.203125 48.484375 30.078125 48.484375 
Q 22.953125 48.484375 18.875 42.84375 
Q 14.796875 37.203125 14.796875 27.296875 
z
" id="DejaVuSans-100"/>
      <path d="M 9.8125 72.90625 
L 19.671875 72.90625 
L 19.671875 8.296875 
L 55.171875 8.296875 
L 55.171875 0 
L 9.8125 0 
z
" id="DejaVuSans-76"/>
     </defs>
     <use xlink:href="#DejaVuSans-80"/>
     <use x="58.552734" xlink:href="#DejaVuSans-114"/>
     <use x="99.666016" xlink:href="#DejaVuSans-105"/>
     <use x="127.449219" xlink:href="#DejaVuSans-99"/>
     <use x="182.429688" xlink:href="#DejaVuSans-101"/>
     <use x="243.953125" xlink:href="#DejaVuSans-115"/>
     <use x="296.052734" xlink:href="#DejaVuSans-32"/>
     <use x="327.839844" xlink:href="#DejaVuSans-119"/>
     <use x="409.626953" xlink:href="#DejaVuSans-105"/>
     <use x="437.410156" xlink:href="#DejaVuSans-116"/>
     <use x="476.619141" xlink:href="#DejaVuSans-104"/>
     <use x="539.998047" xlink:href="#DejaVuSans-32"/>
     <use x="571.785156" xlink:href="#DejaVuSans-83"/>
     <use x="635.261719" xlink:href="#DejaVuSans-117"/>
     <use x="698.640625" xlink:href="#DejaVuSans-112"/>
     <use x="762.117188" xlink:href="#DejaVuSans-112"/>
     <use x="825.59375" xlink:href="#DejaVuSans-111"/>
     <use x="886.775391" xlink:href="#DejaVuSans-114"/>
     <use x="927.888672" xlink:href="#DejaVuSans-116"/>
     <use x="967.097656" xlink:href="#DejaVuSans-47"/>
     <use x="1000.789062" xlink:href="#DejaVuSans-82"/>
     <use x="1065.771484" xlink:href="#DejaVuSans-101"/>
     <use x="1127.294922" xlink:href="#DejaVuSans-115"/>
     <use x="1179.394531" xlink:href="#DejaVuSans-105"/>
     <use x="1207.177734" xlink:href="#DejaVuSans-115"/>
     <use x="1259.277344" xlink:href="#DejaVuSans-116"/>
     <use x="1298.486328" xlink:href="#DejaVuSans-97"/>
     <use x="1359.765625" xlink:href="#DejaVuSans-110"/>
     <use x="1423.144531" xlink:href="#DejaVuSans-99"/>
     <use x="1478.125" xlink:href="#DejaVuSans-101"/>
     <use x="1539.648438" xlink:href="#DejaVuSans-32"/>
     <use x="1571.435547" xlink:href="#DejaVuSans-84"/>
     <use x="1617.769531" xlink:href="#DejaVuSans-114"/>
     <use x="1656.632812" xlink:href="#DejaVuSans-101"/>
     <use x="1718.15625" xlink:href="#DejaVuSans-110"/>
     <use x="1781.535156" xlink:href="#DejaVuSans-100"/>
     <use x="1845.011719" xlink:href="#DejaVuSans-32"/>
     <use x="1876.798828" xlink:href="#DejaVuSans-76"/>
     <use x="1932.511719" xlink:href="#DejaVuSans-105"/>
     <use x="1960.294922" xlink:href="#DejaVuSans-110"/>
     <use x="2023.673828" xlink:href="#DejaVuSans-101"/>
     <use x="2085.197266" xlink:href="#DejaVuSans-115"/>
    </g>
   </g>
   <g id="legend_1">
    <g id="patch_7">
     <path d="M 64.6 122.862625 
L 175.3625 122.862625 
Q 177.3625 122.862625 177.3625 120.862625 
L 177.3625 48.472 
Q 177.3625 46.472 175.3625 46.472 
L 64.6 46.472 
Q 62.6 46.472 62.6 48.472 
L 62.6 120.862625 
Q 62.6 122.862625 64.6 122.862625 
z
" style="fill:#ffffff;opacity:0.8;stroke:#cccccc;stroke-linejoin:miter;"/>
    </g>
    <g id="line2d_25">
     <path d="M 66.6 54.570438 
L 86.6 54.570438 
" style="fill:none;stroke:#000000;stroke-dasharray:5.55,2.4;stroke-dashoffset:0;stroke-width:1.5;"/>
    </g>
    <g id="line2d_26"/>
    <g id="text_17">
     <!-- Close Price -->
     <g transform="translate(94.6 58.070438)scale(0.1 -0.1)">
      <defs>
       <path d="M 64.40625 67.28125 
L 64.40625 56.890625 
Q 59.421875 61.53125 53.78125 63.8125 
Q 48.140625 66.109375 41.796875 66.109375 
Q 29.296875 66.109375 22.65625 58.46875 
Q 16.015625 50.828125 16.015625 36.375 
Q 16.015625 21.96875 22.65625 14.328125 
Q 29.296875 6.6875 41.796875 6.6875 
Q 48.140625 6.6875 53.78125 8.984375 
Q 59.421875 11.28125 64.40625 15.921875 
L 64.40625 5.609375 
Q 59.234375 2.09375 53.4375 0.328125 
Q 47.65625 -1.421875 41.21875 -1.421875 
Q 24.65625 -1.421875 15.125 8.703125 
Q 5.609375 18.84375 5.609375 36.375 
Q 5.609375 53.953125 15.125 64.078125 
Q 24.65625 74.21875 41.21875 74.21875 
Q 47.75 74.21875 53.53125 72.484375 
Q 59.328125 70.75 64.40625 67.28125 
z
" id="DejaVuSans-67"/>
       <path d="M 9.421875 75.984375 
L 18.40625 75.984375 
L 18.40625 0 
L 9.421875 0 
z
" id="DejaVuSans-108"/>
      </defs>
      <use xlink:href="#DejaVuSans-67"/>
      <use x="69.824219" xlink:href="#DejaVuSans-108"/>
      <use x="97.607422" xlink:href="#DejaVuSans-111"/>
      <use x="158.789062" xlink:href="#DejaVuSans-115"/>
      <use x="210.888672" xlink:href="#DejaVuSans-101"/>
      <use x="272.412109" xlink:href="#DejaVuSans-32"/>
      <use x="304.199219" xlink:href="#DejaVuSans-80"/>
      <use x="362.751953" xlink:href="#DejaVuSans-114"/>
      <use x="403.865234" xlink:href="#DejaVuSans-105"/>
      <use x="431.648438" xlink:href="#DejaVuSans-99"/>
      <use x="486.628906" xlink:href="#DejaVuSans-101"/>
     </g>
    </g>
    <g id="line2d_27">
     <path d="M 66.6 69.248563 
L 86.6 69.248563 
" style="fill:none;stroke:#bfbf00;stroke-dasharray:5.55,2.4;stroke-dashoffset:0;stroke-width:1.5;"/>
    </g>
    <g id="line2d_28"/>
    <g id="text_18">
     <!-- Avg. Support -->
     <g transform="translate(94.6 72.748563)scale(0.1 -0.1)">
      <defs>
       <path d="M 34.1875 63.1875 
L 20.796875 26.90625 
L 47.609375 26.90625 
z
M 28.609375 72.90625 
L 39.796875 72.90625 
L 67.578125 0 
L 57.328125 0 
L 50.6875 18.703125 
L 17.828125 18.703125 
L 11.1875 0 
L 0.78125 0 
z
" id="DejaVuSans-65"/>
       <path d="M 2.984375 54.6875 
L 12.5 54.6875 
L 29.59375 8.796875 
L 46.6875 54.6875 
L 56.203125 54.6875 
L 35.6875 0 
L 23.484375 0 
z
" id="DejaVuSans-118"/>
       <path d="M 45.40625 27.984375 
Q 45.40625 37.75 41.375 43.109375 
Q 37.359375 48.484375 30.078125 48.484375 
Q 22.859375 48.484375 18.828125 43.109375 
Q 14.796875 37.75 14.796875 27.984375 
Q 14.796875 18.265625 18.828125 12.890625 
Q 22.859375 7.515625 30.078125 7.515625 
Q 37.359375 7.515625 41.375 12.890625 
Q 45.40625 18.265625 45.40625 27.984375 
z
M 54.390625 6.78125 
Q 54.390625 -7.171875 48.1875 -13.984375 
Q 42 -20.796875 29.203125 -20.796875 
Q 24.46875 -20.796875 20.265625 -20.09375 
Q 16.0625 -19.390625 12.109375 -17.921875 
L 12.109375 -9.1875 
Q 16.0625 -11.328125 19.921875 -12.34375 
Q 23.78125 -13.375 27.78125 -13.375 
Q 36.625 -13.375 41.015625 -8.765625 
Q 45.40625 -4.15625 45.40625 5.171875 
L 45.40625 9.625 
Q 42.625 4.78125 38.28125 2.390625 
Q 33.9375 0 27.875 0 
Q 17.828125 0 11.671875 7.65625 
Q 5.515625 15.328125 5.515625 27.984375 
Q 5.515625 40.671875 11.671875 48.328125 
Q 17.828125 56 27.875 56 
Q 33.9375 56 38.28125 53.609375 
Q 42.625 51.21875 45.40625 46.390625 
L 45.40625 54.6875 
L 54.390625 54.6875 
z
" id="DejaVuSans-103"/>
       <path d="M 10.6875 12.40625 
L 21 12.40625 
L 21 0 
L 10.6875 0 
z
" id="DejaVuSans-46"/>
      </defs>
      <use xlink:href="#DejaVuSans-65"/>
      <use x="62.533203" xlink:href="#DejaVuSans-118"/>
      <use x="121.712891" xlink:href="#DejaVuSans-103"/>
      <use x="185.189453" xlink:href="#DejaVuSans-46"/>
      <use x="216.976562" xlink:href="#DejaVuSans-32"/>
      <use x="248.763672" xlink:href="#DejaVuSans-83"/>
      <use x="312.240234" xlink:href="#DejaVuSans-117"/>
      <use x="375.619141" xlink:href="#DejaVuSans-112"/>
      <use x="439.095703" xlink:href="#DejaVuSans-112"/>
      <use x="502.572266" xlink:href="#DejaVuSans-111"/>
      <use x="563.753906" xlink:href="#DejaVuSans-114"/>
      <use x="604.867188" xlink:href="#DejaVuSans-116"/>
     </g>
    </g>
    <g id="line2d_29">
     <path d="M 66.6 83.926688 
L 86.6 83.926688 
" style="fill:none;stroke:#0000ff;stroke-dasharray:5.55,2.4;stroke-dashoffset:0;stroke-width:1.5;"/>
    </g>
    <g id="line2d_30"/>
    <g id="text_19">
     <!-- Avg. Resistance -->
     <g transform="translate(94.6 87.426688)scale(0.1 -0.1)">
      <use xlink:href="#DejaVuSans-65"/>
      <use x="62.533203" xlink:href="#DejaVuSans-118"/>
      <use x="121.712891" xlink:href="#DejaVuSans-103"/>
      <use x="185.189453" xlink:href="#DejaVuSans-46"/>
      <use x="216.976562" xlink:href="#DejaVuSans-32"/>
      <use x="248.763672" xlink:href="#DejaVuSans-82"/>
      <use x="313.746094" xlink:href="#DejaVuSans-101"/>
      <use x="375.269531" xlink:href="#DejaVuSans-115"/>
      <use x="427.369141" xlink:href="#DejaVuSans-105"/>
      <use x="455.152344" xlink:href="#DejaVuSans-115"/>
      <use x="507.251953" xlink:href="#DejaVuSans-116"/>
      <use x="546.460938" xlink:href="#DejaVuSans-97"/>
      <use x="607.740234" xlink:href="#DejaVuSans-110"/>
      <use x="671.119141" xlink:href="#DejaVuSans-99"/>
      <use x="726.099609" xlink:href="#DejaVuSans-101"/>
     </g>
    </g>
    <g id="line2d_31">
     <path d="M 66.6 98.604813 
L 86.6 98.604813 
" style="fill:none;stroke:#008000;stroke-dasharray:5.55,2.4;stroke-dashoffset:0;stroke-width:1.5;"/>
    </g>
    <g id="line2d_32"/>
    <g id="text_20">
     <!-- Support -->
     <g transform="translate(94.6 102.104813)scale(0.1 -0.1)">
      <use xlink:href="#DejaVuSans-83"/>
      <use x="63.476562" xlink:href="#DejaVuSans-117"/>
      <use x="126.855469" xlink:href="#DejaVuSans-112"/>
      <use x="190.332031" xlink:href="#DejaVuSans-112"/>
      <use x="253.808594" xlink:href="#DejaVuSans-111"/>
      <use x="314.990234" xlink:href="#DejaVuSans-114"/>
      <use x="356.103516" xlink:href="#DejaVuSans-116"/>
     </g>
    </g>
    <g id="line2d_33">
     <path d="M 66.6 113.282938 
L 86.6 113.282938 
" style="fill:none;stroke:#ff0000;stroke-dasharray:5.55,2.4;stroke-dashoffset:0;stroke-width:1.5;"/>
    </g>
    <g id="line2d_34"/>
    <g id="text_21">
     <!-- Resistance -->
     <g transform="translate(94.6 116.782938)scale(0.1 -0.1)">
      <use xlink:href="#DejaVuSans-82"/>
      <use x="64.982422" xlink:href="#DejaVuSans-101"/>
      <use x="126.505859" xlink:href="#DejaVuSans-115"/>
      <use x="178.605469" xlink:href="#DejaVuSans-105"/>
      <use x="206.388672" xlink:href="#DejaVuSans-115"/>
      <use x="258.488281" xlink:href="#DejaVuSans-116"/>
      <use x="297.697266" xlink:href="#DejaVuSans-97"/>
      <use x="358.976562" xlink:href="#DejaVuSans-110"/>
      <use x="422.355469" xlink:href="#DejaVuSans-99"/>
      <use x="477.335938" xlink:href="#DejaVuSans-101"/>
     </g>
    </g>
   </g>
  </g>
 </g>
 <defs>
  <clipPath id="p95060a21b9">
   <rect height="266.112" width="357.12" x="57.6" y="41.472"/>
  </clipPath>
 </defs>
</svg>
