<?xml version="1.0" encoding="utf-8" standalone="no"?>
<!DOCTYPE svg PUBLIC "-//W3C//DTD SVG 1.1//EN"
  "http://www.w3.org/Graphics/SVG/1.1/DTD/svg11.dtd">
<!-- Created with matplotlib (https://matplotlib.org/) -->
<svg height="345.6pt" version="1.1" viewBox="0 0 460.8 345.6" width="460.8pt" xmlns="http://www.w3.org/2000/svg" xmlns:xlink="http://www.w3.org/1999/xlink">
 <metadata>
  <rdf:RDF xmlns:cc="http://creativecommons.org/ns#" xmlns:dc="http://purl.org/dc/elements/1.1/" xmlns:rdf="http://www.w3.org/1999/02/22-rdf-syntax-ns#">
   <cc:Work>
    <dc:type rdf:resource="http://purl.org/dc/dcmitype/StillImage"/>
    <dc:date>2021-03-13T18:19:31.412722</dc:date>
    <dc:format>image/svg+xml</dc:format>
    <dc:creator>
     <cc:Agent>
      <dc:title>Matplotlib v3.3.4, https://matplotlib.org/</dc:title>
     </cc:Agent>
    </dc:creator>
   </cc:Work>
  </rdf:RDF>
 </metadata>
 <defs>
  <style type="text/css">*{stroke-linecap:butt;stroke-linejoin:round;}</style>
 </defs>
 <g id="figure_1">
  <g id="patch_1">
   <path d="M 0 345.6 
L 460.8 345.6 
L 460.8 0 
L 0 0 
z
" style="fill:#ffffff;"/>
  </g>
  <g id="axes_1">
   <g id="patch_2">
    <path d="M 57.6 307.584 
L 414.72 307.584 
L 414.72 41.472 
L 57.6 41.472 
z
" style="fill:#ffffff;"/>
   </g>
   <g id="matplotlib.axis_1">
    <g id="xtick_1">
     <g id="line2d_1">
      <defs>
       <path d="M 0 0 
L 0 3.5 
" id="m99e1762552" style="stroke:#000000;stroke-width:0.8;"/>
      </defs>
      <g>
       <use style="stroke:#000000;stroke-width:0.8;" x="73.832727" xlink:href="#m99e1762552" y="307.584"/>
      </g>
     </g>
     <g id="text_1">
      <!-- 0 -->
      <g transform="translate(67.282797 324.34569)rotate(-30)scale(0.1 -0.1)">
       <defs>
        <path d="M 31.78125 66.40625 
Q 24.171875 66.40625 20.328125 58.90625 
Q 16.5 51.421875 16.5 36.375 
Q 16.5 21.390625 20.328125 13.890625 
Q 24.171875 6.390625 31.78125 6.390625 
Q 39.453125 6.390625 43.28125 13.890625 
Q 47.125 21.390625 47.125 36.375 
Q 47.125 51.421875 43.28125 58.90625 
Q 39.453125 66.40625 31.78125 66.40625 
z
M 31.78125 74.21875 
Q 44.046875 74.21875 50.515625 64.515625 
Q 56.984375 54.828125 56.984375 36.375 
Q 56.984375 17.96875 50.515625 8.265625 
Q 44.046875 -1.421875 31.78125 -1.421875 
Q 19.53125 -1.421875 13.0625 8.265625 
Q 6.59375 17.96875 6.59375 36.375 
Q 6.59375 54.828125 13.0625 64.515625 
Q 19.53125 74.21875 31.78125 74.21875 
z
" id="DejaVuSans-48"/>
       </defs>
       <use xlink:href="#DejaVuSans-48"/>
      </g>
     </g>
    </g>
    <g id="xtick_2">
     <g id="line2d_2">
      <g>
       <use style="stroke:#000000;stroke-width:0.8;" x="139.287273" xlink:href="#m99e1762552" y="307.584"/>
      </g>
     </g>
     <g id="text_2">
      <!-- 50 -->
      <g transform="translate(127.227256 327.52694)rotate(-30)scale(0.1 -0.1)">
       <defs>
        <path d="M 10.796875 72.90625 
L 49.515625 72.90625 
L 49.515625 64.59375 
L 19.828125 64.59375 
L 19.828125 46.734375 
Q 21.96875 47.46875 24.109375 47.828125 
Q 26.265625 48.1875 28.421875 48.1875 
Q 40.625 48.1875 47.75 41.5 
Q 54.890625 34.8125 54.890625 23.390625 
Q 54.890625 11.625 47.5625 5.09375 
Q 40.234375 -1.421875 26.90625 -1.421875 
Q 22.3125 -1.421875 17.546875 -0.640625 
Q 12.796875 0.140625 7.71875 1.703125 
L 7.71875 11.625 
Q 12.109375 9.234375 16.796875 8.0625 
Q 21.484375 6.890625 26.703125 6.890625 
Q 35.15625 6.890625 40.078125 11.328125 
Q 45.015625 15.765625 45.015625 23.390625 
Q 45.015625 31 40.078125 35.4375 
Q 35.15625 39.890625 26.703125 39.890625 
Q 22.75 39.890625 18.8125 39.015625 
Q 14.890625 38.140625 10.796875 36.28125 
z
" id="DejaVuSans-53"/>
       </defs>
       <use xlink:href="#DejaVuSans-53"/>
       <use x="63.623047" xlink:href="#DejaVuSans-48"/>
      </g>
     </g>
    </g>
    <g id="xtick_3">
     <g id="line2d_3">
      <g>
       <use style="stroke:#000000;stroke-width:0.8;" x="204.741818" xlink:href="#m99e1762552" y="307.584"/>
      </g>
     </g>
     <g id="text_3">
      <!-- 100 -->
      <g transform="translate(187.171715 330.70819)rotate(-30)scale(0.1 -0.1)">
       <defs>
        <path d="M 12.40625 8.296875 
L 28.515625 8.296875 
L 28.515625 63.921875 
L 10.984375 60.40625 
L 10.984375 69.390625 
L 28.421875 72.90625 
L 38.28125 72.90625 
L 38.28125 8.296875 
L 54.390625 8.296875 
L 54.390625 0 
L 12.40625 0 
z
" id="DejaVuSans-49"/>
       </defs>
       <use xlink:href="#DejaVuSans-49"/>
       <use x="63.623047" xlink:href="#DejaVuSans-48"/>
       <use x="127.246094" xlink:href="#DejaVuSans-48"/>
      </g>
     </g>
    </g>
    <g id="xtick_4">
     <g id="line2d_4">
      <g>
       <use style="stroke:#000000;stroke-width:0.8;" x="270.196364" xlink:href="#m99e1762552" y="307.584"/>
      </g>
     </g>
     <g id="text_4">
      <!-- 150 -->
      <g transform="translate(252.62626 330.70819)rotate(-30)scale(0.1 -0.1)">
       <use xlink:href="#DejaVuSans-49"/>
       <use x="63.623047" xlink:href="#DejaVuSans-53"/>
       <use x="127.246094" xlink:href="#DejaVuSans-48"/>
      </g>
     </g>
    </g>
    <g id="xtick_5">
     <g id="line2d_5">
      <g>
       <use style="stroke:#000000;stroke-width:0.8;" x="335.650909" xlink:href="#m99e1762552" y="307.584"/>
      </g>
     </g>
     <g id="text_5">
      <!-- 200 -->
      <g transform="translate(318.080805 330.70819)rotate(-30)scale(0.1 -0.1)">
       <defs>
        <path d="M 19.1875 8.296875 
L 53.609375 8.296875 
L 53.609375 0 
L 7.328125 0 
L 7.328125 8.296875 
Q 12.9375 14.109375 22.625 23.890625 
Q 32.328125 33.6875 34.8125 36.53125 
Q 39.546875 41.84375 41.421875 45.53125 
Q 43.3125 49.21875 43.3125 52.78125 
Q 43.3125 58.59375 39.234375 62.25 
Q 35.15625 65.921875 28.609375 65.921875 
Q 23.96875 65.921875 18.8125 64.3125 
Q 13.671875 62.703125 7.8125 59.421875 
L 7.8125 69.390625 
Q 13.765625 71.78125 18.9375 73 
Q 24.125 74.21875 28.421875 74.21875 
Q 39.75 74.21875 46.484375 68.546875 
Q 53.21875 62.890625 53.21875 53.421875 
Q 53.21875 48.921875 51.53125 44.890625 
Q 49.859375 40.875 45.40625 35.40625 
Q 44.1875 33.984375 37.640625 27.21875 
Q 31.109375 20.453125 19.1875 8.296875 
z
" id="DejaVuSans-50"/>
       </defs>
       <use xlink:href="#DejaVuSans-50"/>
       <use x="63.623047" xlink:href="#DejaVuSans-48"/>
       <use x="127.246094" xlink:href="#DejaVuSans-48"/>
      </g>
     </g>
    </g>
    <g id="xtick_6">
     <g id="line2d_6">
      <g>
       <use style="stroke:#000000;stroke-width:0.8;" x="401.105455" xlink:href="#m99e1762552" y="307.584"/>
      </g>
     </g>
     <g id="text_6">
      <!-- 250 -->
      <g transform="translate(383.535351 330.70819)rotate(-30)scale(0.1 -0.1)">
       <use xlink:href="#DejaVuSans-50"/>
       <use x="63.623047" xlink:href="#DejaVuSans-53"/>
       <use x="127.246094" xlink:href="#DejaVuSans-48"/>
      </g>
     </g>
    </g>
    <g id="text_7">
     <!-- Date -->
     <g transform="translate(224.209219 344.10769)scale(0.1 -0.1)">
      <defs>
       <path d="M 19.671875 64.796875 
L 19.671875 8.109375 
L 31.59375 8.109375 
Q 46.6875 8.109375 53.6875 14.9375 
Q 60.6875 21.78125 60.6875 36.53125 
Q 60.6875 51.171875 53.6875 57.984375 
Q 46.6875 64.796875 31.59375 64.796875 
z
M 9.8125 72.90625 
L 30.078125 72.90625 
Q 51.265625 72.90625 61.171875 64.09375 
Q 71.09375 55.28125 71.09375 36.53125 
Q 71.09375 17.671875 61.125 8.828125 
Q 51.171875 0 30.078125 0 
L 9.8125 0 
z
" id="DejaVuSans-68"/>
       <path d="M 34.28125 27.484375 
Q 23.390625 27.484375 19.1875 25 
Q 14.984375 22.515625 14.984375 16.5 
Q 14.984375 11.71875 18.140625 8.90625 
Q 21.296875 6.109375 26.703125 6.109375 
Q 34.1875 6.109375 38.703125 11.40625 
Q 43.21875 16.703125 43.21875 25.484375 
L 43.21875 27.484375 
z
M 52.203125 31.203125 
L 52.203125 0 
L 43.21875 0 
L 43.21875 8.296875 
Q 40.140625 3.328125 35.546875 0.953125 
Q 30.953125 -1.421875 24.3125 -1.421875 
Q 15.921875 -1.421875 10.953125 3.296875 
Q 6 8.015625 6 15.921875 
Q 6 25.140625 12.171875 29.828125 
Q 18.359375 34.515625 30.609375 34.515625 
L 43.21875 34.515625 
L 43.21875 35.40625 
Q 43.21875 41.609375 39.140625 45 
Q 35.0625 48.390625 27.6875 48.390625 
Q 23 48.390625 18.546875 47.265625 
Q 14.109375 46.140625 10.015625 43.890625 
L 10.015625 52.203125 
Q 14.9375 54.109375 19.578125 55.046875 
Q 24.21875 56 28.609375 56 
Q 40.484375 56 46.34375 49.84375 
Q 52.203125 43.703125 52.203125 31.203125 
z
" id="DejaVuSans-97"/>
       <path d="M 18.3125 70.21875 
L 18.3125 54.6875 
L 36.8125 54.6875 
L 36.8125 47.703125 
L 18.3125 47.703125 
L 18.3125 18.015625 
Q 18.3125 11.328125 20.140625 9.421875 
Q 21.96875 7.515625 27.59375 7.515625 
L 36.8125 7.515625 
L 36.8125 0 
L 27.59375 0 
Q 17.1875 0 13.234375 3.875 
Q 9.28125 7.765625 9.28125 18.015625 
L 9.28125 47.703125 
L 2.6875 47.703125 
L 2.6875 54.6875 
L 9.28125 54.6875 
L 9.28125 70.21875 
z
" id="DejaVuSans-116"/>
       <path d="M 56.203125 29.59375 
L 56.203125 25.203125 
L 14.890625 25.203125 
Q 15.484375 15.921875 20.484375 11.0625 
Q 25.484375 6.203125 34.421875 6.203125 
Q 39.59375 6.203125 44.453125 7.46875 
Q 49.3125 8.734375 54.109375 11.28125 
L 54.109375 2.78125 
Q 49.265625 0.734375 44.1875 -0.34375 
Q 39.109375 -1.421875 33.890625 -1.421875 
Q 20.796875 -1.421875 13.15625 6.1875 
Q 5.515625 13.8125 5.515625 26.8125 
Q 5.515625 40.234375 12.765625 48.109375 
Q 20.015625 56 32.328125 56 
Q 43.359375 56 49.78125 48.890625 
Q 56.203125 41.796875 56.203125 29.59375 
z
M 47.21875 32.234375 
Q 47.125 39.59375 43.09375 43.984375 
Q 39.0625 48.390625 32.421875 48.390625 
Q 24.90625 48.390625 20.390625 44.140625 
Q 15.875 39.890625 15.1875 32.171875 
z
" id="DejaVuSans-101"/>
      </defs>
      <use xlink:href="#DejaVuSans-68"/>
      <use x="77.001953" xlink:href="#DejaVuSans-97"/>
      <use x="138.28125" xlink:href="#DejaVuSans-116"/>
      <use x="177.490234" xlink:href="#DejaVuSans-101"/>
     </g>
    </g>
   </g>
   <g id="matplotlib.axis_2">
    <g id="ytick_1">
     <g id="line2d_7">
      <defs>
       <path d="M 0 0 
L -3.5 0 
" id="m0d687cabec" style="stroke:#000000;stroke-width:0.8;"/>
      </defs>
      <g>
       <use style="stroke:#000000;stroke-width:0.8;" x="57.6" xlink:href="#m0d687cabec" y="301.880288"/>
      </g>
     </g>
     <g id="text_8">
      <!-- 0 -->
      <g transform="translate(44.2375 305.679506)scale(0.1 -0.1)">
       <use xlink:href="#DejaVuSans-48"/>
      </g>
     </g>
    </g>
    <g id="ytick_2">
     <g id="line2d_8">
      <g>
       <use style="stroke:#000000;stroke-width:0.8;" x="57.6" xlink:href="#m0d687cabec" y="247.805312"/>
      </g>
     </g>
     <g id="text_9">
      <!-- 200 -->
      <g transform="translate(31.5125 251.604531)scale(0.1 -0.1)">
       <use xlink:href="#DejaVuSans-50"/>
       <use x="63.623047" xlink:href="#DejaVuSans-48"/>
       <use x="127.246094" xlink:href="#DejaVuSans-48"/>
      </g>
     </g>
    </g>
    <g id="ytick_3">
     <g id="line2d_9">
      <g>
       <use style="stroke:#000000;stroke-width:0.8;" x="57.6" xlink:href="#m0d687cabec" y="193.730337"/>
      </g>
     </g>
     <g id="text_10">
      <!-- 400 -->
      <g transform="translate(31.5125 197.529555)scale(0.1 -0.1)">
       <defs>
        <path d="M 37.796875 64.3125 
L 12.890625 25.390625 
L 37.796875 25.390625 
z
M 35.203125 72.90625 
L 47.609375 72.90625 
L 47.609375 25.390625 
L 58.015625 25.390625 
L 58.015625 17.1875 
L 47.609375 17.1875 
L 47.609375 0 
L 37.796875 0 
L 37.796875 17.1875 
L 4.890625 17.1875 
L 4.890625 26.703125 
z
" id="DejaVuSans-52"/>
       </defs>
       <use xlink:href="#DejaVuSans-52"/>
       <use x="63.623047" xlink:href="#DejaVuSans-48"/>
       <use x="127.246094" xlink:href="#DejaVuSans-48"/>
      </g>
     </g>
    </g>
    <g id="ytick_4">
     <g id="line2d_10">
      <g>
       <use style="stroke:#000000;stroke-width:0.8;" x="57.6" xlink:href="#m0d687cabec" y="139.655361"/>
      </g>
     </g>
     <g id="text_11">
      <!-- 600 -->
      <g transform="translate(31.5125 143.45458)scale(0.1 -0.1)">
       <defs>
        <path d="M 33.015625 40.375 
Q 26.375 40.375 22.484375 35.828125 
Q 18.609375 31.296875 18.609375 23.390625 
Q 18.609375 15.53125 22.484375 10.953125 
Q 26.375 6.390625 33.015625 6.390625 
Q 39.65625 6.390625 43.53125 10.953125 
Q 47.40625 15.53125 47.40625 23.390625 
Q 47.40625 31.296875 43.53125 35.828125 
Q 39.65625 40.375 33.015625 40.375 
z
M 52.59375 71.296875 
L 52.59375 62.3125 
Q 48.875 64.0625 45.09375 64.984375 
Q 41.3125 65.921875 37.59375 65.921875 
Q 27.828125 65.921875 22.671875 59.328125 
Q 17.53125 52.734375 16.796875 39.40625 
Q 19.671875 43.65625 24.015625 45.921875 
Q 28.375 48.1875 33.59375 48.1875 
Q 44.578125 48.1875 50.953125 41.515625 
Q 57.328125 34.859375 57.328125 23.390625 
Q 57.328125 12.15625 50.6875 5.359375 
Q 44.046875 -1.421875 33.015625 -1.421875 
Q 20.359375 -1.421875 13.671875 8.265625 
Q 6.984375 17.96875 6.984375 36.375 
Q 6.984375 53.65625 15.1875 63.9375 
Q 23.390625 74.21875 37.203125 74.21875 
Q 40.921875 74.21875 44.703125 73.484375 
Q 48.484375 72.75 52.59375 71.296875 
z
" id="DejaVuSans-54"/>
       </defs>
       <use xlink:href="#DejaVuSans-54"/>
       <use x="63.623047" xlink:href="#DejaVuSans-48"/>
       <use x="127.246094" xlink:href="#DejaVuSans-48"/>
      </g>
     </g>
    </g>
    <g id="ytick_5">
     <g id="line2d_11">
      <g>
       <use style="stroke:#000000;stroke-width:0.8;" x="57.6" xlink:href="#m0d687cabec" y="85.580385"/>
      </g>
     </g>
     <g id="text_12">
      <!-- 800 -->
      <g transform="translate(31.5125 89.379604)scale(0.1 -0.1)">
       <defs>
        <path d="M 31.78125 34.625 
Q 24.75 34.625 20.71875 30.859375 
Q 16.703125 27.09375 16.703125 20.515625 
Q 16.703125 13.921875 20.71875 10.15625 
Q 24.75 6.390625 31.78125 6.390625 
Q 38.8125 6.390625 42.859375 10.171875 
Q 46.921875 13.96875 46.921875 20.515625 
Q 46.921875 27.09375 42.890625 30.859375 
Q 38.875 34.625 31.78125 34.625 
z
M 21.921875 38.8125 
Q 15.578125 40.375 12.03125 44.71875 
Q 8.5 49.078125 8.5 55.328125 
Q 8.5 64.0625 14.71875 69.140625 
Q 20.953125 74.21875 31.78125 74.21875 
Q 42.671875 74.21875 48.875 69.140625 
Q 55.078125 64.0625 55.078125 55.328125 
Q 55.078125 49.078125 51.53125 44.71875 
Q 48 40.375 41.703125 38.8125 
Q 48.828125 37.15625 52.796875 32.3125 
Q 56.78125 27.484375 56.78125 20.515625 
Q 56.78125 9.90625 50.3125 4.234375 
Q 43.84375 -1.421875 31.78125 -1.421875 
Q 19.734375 -1.421875 13.25 4.234375 
Q 6.78125 9.90625 6.78125 20.515625 
Q 6.78125 27.484375 10.78125 32.3125 
Q 14.796875 37.15625 21.921875 38.8125 
z
M 18.3125 54.390625 
Q 18.3125 48.734375 21.84375 45.5625 
Q 25.390625 42.390625 31.78125 42.390625 
Q 38.140625 42.390625 41.71875 45.5625 
Q 45.3125 48.734375 45.3125 54.390625 
Q 45.3125 60.0625 41.71875 63.234375 
Q 38.140625 66.40625 31.78125 66.40625 
Q 25.390625 66.40625 21.84375 63.234375 
Q 18.3125 60.0625 18.3125 54.390625 
z
" id="DejaVuSans-56"/>
       </defs>
       <use xlink:href="#DejaVuSans-56"/>
       <use x="63.623047" xlink:href="#DejaVuSans-48"/>
       <use x="127.246094" xlink:href="#DejaVuSans-48"/>
      </g>
     </g>
    </g>
    <g id="text_13">
     <!-- Price -->
     <g transform="translate(25.432812 186.725656)rotate(-90)scale(0.1 -0.1)">
      <defs>
       <path d="M 19.671875 64.796875 
L 19.671875 37.40625 
L 32.078125 37.40625 
Q 38.96875 37.40625 42.71875 40.96875 
Q 46.484375 44.53125 46.484375 51.125 
Q 46.484375 57.671875 42.71875 61.234375 
Q 38.96875 64.796875 32.078125 64.796875 
z
M 9.8125 72.90625 
L 32.078125 72.90625 
Q 44.34375 72.90625 50.609375 67.359375 
Q 56.890625 61.8125 56.890625 51.125 
Q 56.890625 40.328125 50.609375 34.8125 
Q 44.34375 29.296875 32.078125 29.296875 
L 19.671875 29.296875 
L 19.671875 0 
L 9.8125 0 
z
" id="DejaVuSans-80"/>
       <path d="M 41.109375 46.296875 
Q 39.59375 47.171875 37.8125 47.578125 
Q 36.03125 48 33.890625 48 
Q 26.265625 48 22.1875 43.046875 
Q 18.109375 38.09375 18.109375 28.8125 
L 18.109375 0 
L 9.078125 0 
L 9.078125 54.6875 
L 18.109375 54.6875 
L 18.109375 46.1875 
Q 20.953125 51.171875 25.484375 53.578125 
Q 30.03125 56 36.53125 56 
Q 37.453125 56 38.578125 55.875 
Q 39.703125 55.765625 41.0625 55.515625 
z
" id="DejaVuSans-114"/>
       <path d="M 9.421875 54.6875 
L 18.40625 54.6875 
L 18.40625 0 
L 9.421875 0 
z
M 9.421875 75.984375 
L 18.40625 75.984375 
L 18.40625 64.59375 
L 9.421875 64.59375 
z
" id="DejaVuSans-105"/>
       <path d="M 48.78125 52.59375 
L 48.78125 44.1875 
Q 44.96875 46.296875 41.140625 47.34375 
Q 37.3125 48.390625 33.40625 48.390625 
Q 24.65625 48.390625 19.8125 42.84375 
Q 14.984375 37.3125 14.984375 27.296875 
Q 14.984375 17.28125 19.8125 11.734375 
Q 24.65625 6.203125 33.40625 6.203125 
Q 37.3125 6.203125 41.140625 7.25 
Q 44.96875 8.296875 48.78125 10.40625 
L 48.78125 2.09375 
Q 45.015625 0.34375 40.984375 -0.53125 
Q 36.96875 -1.421875 32.421875 -1.421875 
Q 20.0625 -1.421875 12.78125 6.34375 
Q 5.515625 14.109375 5.515625 27.296875 
Q 5.515625 40.671875 12.859375 48.328125 
Q 20.21875 56 33.015625 56 
Q 37.15625 56 41.109375 55.140625 
Q 45.0625 54.296875 48.78125 52.59375 
z
" id="DejaVuSans-99"/>
      </defs>
      <use xlink:href="#DejaVuSans-80"/>
      <use x="58.552734" xlink:href="#DejaVuSans-114"/>
      <use x="99.666016" xlink:href="#DejaVuSans-105"/>
      <use x="127.449219" xlink:href="#DejaVuSans-99"/>
      <use x="182.429688" xlink:href="#DejaVuSans-101"/>
     </g>
    </g>
   </g>
   <g id="line2d_12">
    <path clip-path="url(#pd14b4da14e)" d="M 73.832727 265.460792 
L 75.141818 265.812279 
L 76.450909 266.677478 
L 77.76 267.028966 
L 79.069091 264.649667 
L 80.378182 269.191965 
L 81.687273 266.636922 
L 82.996364 266.109691 
L 84.305455 263.960211 
L 85.614545 267.272303 
L 86.923636 267.083041 
L 88.232727 264.676704 
L 89.541818 265.663573 
L 90.850909 266.98841 
L 92.16 264.527998 
L 93.469091 264.541517 
L 94.778182 263.365386 
L 96.087273 262.405555 
L 97.396364 262.608337 
L 98.705455 263.135568 
L 100.014545 262.973343 
L 101.323636 262.216293 
L 102.632727 265.122823 
L 103.941818 264.676704 
L 105.250909 263.892617 
L 106.56 265.47431 
L 107.869091 265.487829 
L 109.178182 264.217067 
L 110.487273 264.162992 
L 111.796364 263.64928 
L 113.105455 266.312472 
L 114.414545 266.001541 
L 115.723636 265.852835 
L 117.032727 265.406717 
L 118.341818 264.798373 
L 119.650909 264.014286 
L 120.96 264.054842 
L 122.269091 263.716874 
L 124.887273 263.743911 
L 126.196364 265.136342 
L 127.505455 264.108917 
L 128.814545 263.662799 
L 130.123636 264.487442 
L 131.432727 264.541517 
L 135.36 263.311311 
L 136.669091 261.770174 
L 137.978182 261.188868 
L 139.287273 261.337575 
L 140.596364 261.148312 
L 141.905455 261.864806 
L 143.214545 260.661637 
L 144.523636 260.607562 
L 145.832727 260.810344 
L 148.450909 260.837381 
L 149.76 260.702194 
L 152.378182 262.35148 
L 154.996364 261.905362 
L 156.305455 260.594044 
L 157.614545 260.066813 
L 158.923636 259.377357 
L 160.232727 260.026256 
L 161.541818 258.174189 
L 162.850909 258.039001 
L 164.16 258.687901 
L 165.469091 259.634213 
L 166.778182 259.255688 
L 168.087273 259.106982 
L 169.396364 258.620307 
L 172.014545 256.416752 
L 173.323636 257.809182 
L 174.632727 257.876776 
L 175.941818 258.70142 
L 177.250909 259.688288 
L 178.56 261.39165 
L 179.869091 261.932399 
L 181.178182 261.621468 
L 182.487273 260.891456 
L 183.796364 258.431045 
L 185.105455 256.646571 
L 186.414545 256.078783 
L 187.723636 255.930077 
L 189.032727 256.254527 
L 190.341818 257.011577 
L 191.650909 254.956728 
L 192.96 253.456147 
L 194.269091 254.551165 
L 195.578182 254.49709 
L 196.887273 255.308215 
L 198.196364 252.645022 
L 199.505455 253.32096 
L 202.123636 249.724974 
L 203.432727 248.967924 
L 204.741818 248.927368 
L 206.050909 248.427174 
L 207.36 247.602531 
L 208.669091 248.832737 
L 209.978182 248.400137 
L 211.287273 244.101176 
L 212.596364 237.111986 
L 213.905455 238.612566 
L 215.214545 238.78831 
L 216.523636 234.638055 
L 217.832727 218.726494 
L 219.141818 224.674741 
L 221.76 223.944729 
L 223.069091 226.296991 
L 224.378182 225.877909 
L 225.687273 222.64693 
L 226.996364 223.133604 
L 228.305455 224.782891 
L 229.614545 224.755854 
L 230.923636 226.797184 
L 232.232727 225.350678 
L 233.541818 221.227462 
L 234.850909 221.849324 
L 236.16 222.619892 
L 237.469091 223.863617 
L 238.778182 221.551911 
L 240.087273 222.471186 
L 241.396364 223.052492 
L 242.705455 226.959409 
L 245.323636 225.215491 
L 246.632727 228.757402 
L 247.941818 226.094209 
L 249.250909 221.930436 
L 250.56 221.335612 
L 251.869091 221.551911 
L 253.178182 218.564269 
L 254.487273 213.575853 
L 255.796364 213.427146 
L 257.105455 212.62954 
L 258.414545 216.374232 
L 259.723636 217.252951 
L 261.032727 216.61757 
L 262.341818 217.198876 
L 263.650909 217.144801 
L 264.96 218.848163 
L 266.269091 218.8752 
L 267.578182 216.18497 
L 268.887273 214.846614 
L 270.196364 217.523326 
L 271.505455 217.658513 
L 272.814545 216.590532 
L 274.123636 218.76705 
L 275.432727 216.969057 
L 276.741818 215.671258 
L 279.36 210.033942 
L 280.669091 209.655417 
L 281.978182 208.65503 
L 283.287273 206.748887 
L 284.596364 206.505549 
L 285.905455 206.681293 
L 287.214545 205.113119 
L 288.523636 204.680519 
L 289.832727 204.518294 
L 291.141818 203.044751 
L 293.76 201.503614 
L 295.069091 195.271473 
L 296.378182 195.217398 
L 297.687273 197.583179 
L 298.996364 196.893723 
L 300.305455 191.283444 
L 301.614545 191.783637 
L 302.923636 193.933118 
L 304.232727 193.203105 
L 305.541818 194.162936 
L 306.850909 187.809127 
L 308.16 179.197687 
L 309.469091 180.874011 
L 310.778182 181.306611 
L 312.087273 178.170262 
L 313.396364 179.69788 
L 314.705455 180.45493 
L 316.014545 180.955124 
L 317.323636 180.265668 
L 318.632727 178.819162 
L 319.941818 176.845425 
L 321.250909 176.629126 
L 323.869091 178.819162 
L 325.178182 185.83539 
L 326.487273 177.832294 
L 327.796364 176.534494 
L 329.105455 173.817227 
L 330.414545 169.166779 
L 331.723636 169.612897 
L 334.341818 172.222015 
L 335.650909 169.085666 
L 336.96 168.179911 
L 338.269091 168.206948 
L 339.578182 169.15326 
L 340.887273 161.799063 
L 342.196364 161.826101 
L 343.505455 161.51517 
L 344.814545 159.825327 
L 346.123636 156.945834 
L 347.432727 158.013815 
L 348.741818 159.311615 
L 350.050909 164.570406 
L 351.36 158.554565 
L 352.669091 154.052823 
L 355.287273 159.446802 
L 356.596364 162.934638 
L 359.214545 163.488906 
L 360.523636 164.894856 
L 361.832727 156.634903 
L 363.141818 149.334782 
L 364.450909 148.685882 
L 365.76 142.440222 
L 367.069091 140.912604 
L 368.378182 132.003752 
L 369.687273 131.584671 
L 370.996364 125.947355 
L 372.305455 123.811393 
L 373.614545 107.494269 
L 374.923636 95.462587 
L 376.232727 90.933808 
L 377.541818 89.51434 
L 378.850909 83.363312 
L 380.16 90.474171 
L 381.469091 83.985174 
L 382.778182 85.675017 
L 384.087273 84.174436 
L 385.396364 73.819078 
L 386.705455 76.482271 
L 388.014545 71.656079 
L 389.323636 65.964688 
L 390.632727 54.392643 
L 391.941818 53.568 
L 393.250909 55.866186 
L 394.56 55.785074 
L 395.869091 57.136948 
L 397.178182 59.043091 
L 398.487273 60.13811 
L 398.487273 60.13811 
" style="fill:none;stroke:#000000;stroke-dasharray:5.55,2.4;stroke-dashoffset:0;stroke-width:1.5;"/>
   </g>
   <g id="line2d_13">
    <defs>
     <path d="M 0 3 
C 0.795609 3 1.55874 2.683901 2.12132 2.12132 
C 2.683901 1.55874 3 0.795609 3 0 
C 3 -0.795609 2.683901 -1.55874 2.12132 -2.12132 
C 1.55874 -2.683901 0.795609 -3 0 -3 
C -0.795609 -3 -1.55874 -2.683901 -2.12132 -2.12132 
C -2.683901 -1.55874 -3 -0.795609 -3 0 
C -3 0.795609 -2.683901 1.55874 -2.12132 2.12132 
C -1.55874 2.683901 -0.795609 3 0 3 
z
" id="mac9b63eb3e" style="stroke:#bfbf00;"/>
    </defs>
    <g clip-path="url(#pd14b4da14e)">
     <use style="fill:#bfbf00;stroke:#bfbf00;" x="77.76" xlink:href="#mac9b63eb3e" y="267.028966"/>
     <use style="fill:#bfbf00;stroke:#bfbf00;" x="80.378182" xlink:href="#mac9b63eb3e" y="269.191965"/>
     <use style="fill:#bfbf00;stroke:#bfbf00;" x="85.614545" xlink:href="#mac9b63eb3e" y="267.272303"/>
     <use style="fill:#bfbf00;stroke:#bfbf00;" x="90.850909" xlink:href="#mac9b63eb3e" y="266.98841"/>
     <use style="fill:#bfbf00;stroke:#bfbf00;" x="98.705455" xlink:href="#mac9b63eb3e" y="263.135568"/>
     <use style="fill:#bfbf00;stroke:#bfbf00;" x="102.632727" xlink:href="#mac9b63eb3e" y="265.122823"/>
     <use style="fill:#bfbf00;stroke:#bfbf00;" x="107.869091" xlink:href="#mac9b63eb3e" y="265.487829"/>
     <use style="fill:#bfbf00;stroke:#bfbf00;" x="113.105455" xlink:href="#mac9b63eb3e" y="266.312472"/>
     <use style="fill:#bfbf00;stroke:#bfbf00;" x="126.196364" xlink:href="#mac9b63eb3e" y="265.136342"/>
     <use style="fill:#bfbf00;stroke:#bfbf00;" x="131.432727" xlink:href="#mac9b63eb3e" y="264.541517"/>
     <use style="fill:#bfbf00;stroke:#bfbf00;" x="141.905455" xlink:href="#mac9b63eb3e" y="261.864806"/>
     <use style="fill:#bfbf00;stroke:#bfbf00;" x="148.450909" xlink:href="#mac9b63eb3e" y="260.837381"/>
     <use style="fill:#bfbf00;stroke:#bfbf00;" x="152.378182" xlink:href="#mac9b63eb3e" y="262.35148"/>
     <use style="fill:#bfbf00;stroke:#bfbf00;" x="165.469091" xlink:href="#mac9b63eb3e" y="259.634213"/>
     <use style="fill:#bfbf00;stroke:#bfbf00;" x="179.869091" xlink:href="#mac9b63eb3e" y="261.932399"/>
     <use style="fill:#bfbf00;stroke:#bfbf00;" x="190.341818" xlink:href="#mac9b63eb3e" y="257.011577"/>
     <use style="fill:#bfbf00;stroke:#bfbf00;" x="196.887273" xlink:href="#mac9b63eb3e" y="255.308215"/>
     <use style="fill:#bfbf00;stroke:#bfbf00;" x="208.669091" xlink:href="#mac9b63eb3e" y="248.832737"/>
     <use style="fill:#bfbf00;stroke:#bfbf00;" x="215.214545" xlink:href="#mac9b63eb3e" y="238.78831"/>
     <use style="fill:#bfbf00;stroke:#bfbf00;" x="219.141818" xlink:href="#mac9b63eb3e" y="224.674741"/>
     <use style="fill:#bfbf00;stroke:#bfbf00;" x="223.069091" xlink:href="#mac9b63eb3e" y="226.296991"/>
     <use style="fill:#bfbf00;stroke:#bfbf00;" x="230.923636" xlink:href="#mac9b63eb3e" y="226.797184"/>
     <use style="fill:#bfbf00;stroke:#bfbf00;" x="237.469091" xlink:href="#mac9b63eb3e" y="223.863617"/>
     <use style="fill:#bfbf00;stroke:#bfbf00;" x="242.705455" xlink:href="#mac9b63eb3e" y="226.959409"/>
     <use style="fill:#bfbf00;stroke:#bfbf00;" x="246.632727" xlink:href="#mac9b63eb3e" y="228.757402"/>
     <use style="fill:#bfbf00;stroke:#bfbf00;" x="259.723636" xlink:href="#mac9b63eb3e" y="217.252951"/>
     <use style="fill:#bfbf00;stroke:#bfbf00;" x="266.269091" xlink:href="#mac9b63eb3e" y="218.8752"/>
     <use style="fill:#bfbf00;stroke:#bfbf00;" x="271.505455" xlink:href="#mac9b63eb3e" y="217.658513"/>
     <use style="fill:#bfbf00;stroke:#bfbf00;" x="274.123636" xlink:href="#mac9b63eb3e" y="218.76705"/>
     <use style="fill:#bfbf00;stroke:#bfbf00;" x="297.687273" xlink:href="#mac9b63eb3e" y="197.583179"/>
     <use style="fill:#bfbf00;stroke:#bfbf00;" x="305.541818" xlink:href="#mac9b63eb3e" y="194.162936"/>
     <use style="fill:#bfbf00;stroke:#bfbf00;" x="310.778182" xlink:href="#mac9b63eb3e" y="181.306611"/>
     <use style="fill:#bfbf00;stroke:#bfbf00;" x="316.014545" xlink:href="#mac9b63eb3e" y="180.955124"/>
     <use style="fill:#bfbf00;stroke:#bfbf00;" x="325.178182" xlink:href="#mac9b63eb3e" y="185.83539"/>
     <use style="fill:#bfbf00;stroke:#bfbf00;" x="334.341818" xlink:href="#mac9b63eb3e" y="172.222015"/>
     <use style="fill:#bfbf00;stroke:#bfbf00;" x="339.578182" xlink:href="#mac9b63eb3e" y="169.15326"/>
     <use style="fill:#bfbf00;stroke:#bfbf00;" x="350.050909" xlink:href="#mac9b63eb3e" y="164.570406"/>
     <use style="fill:#bfbf00;stroke:#bfbf00;" x="360.523636" xlink:href="#mac9b63eb3e" y="164.894856"/>
     <use style="fill:#bfbf00;stroke:#bfbf00;" x="380.16" xlink:href="#mac9b63eb3e" y="90.474171"/>
     <use style="fill:#bfbf00;stroke:#bfbf00;" x="382.778182" xlink:href="#mac9b63eb3e" y="85.675017"/>
    </g>
   </g>
   <g id="line2d_14">
    <path clip-path="url(#pd14b4da14e)" d="M 73.832727 291.568703 
L 398.487273 142.488665 
" style="fill:none;stroke:#bfbf00;stroke-dasharray:5.55,2.4;stroke-dashoffset:0;stroke-width:1.5;"/>
   </g>
   <g id="line2d_15">
    <defs>
     <path d="M 0 3 
C 0.795609 3 1.55874 2.683901 2.12132 2.12132 
C 2.683901 1.55874 3 0.795609 3 0 
C 3 -0.795609 2.683901 -1.55874 2.12132 -2.12132 
C 1.55874 -2.683901 0.795609 -3 0 -3 
C -0.795609 -3 -1.55874 -2.683901 -2.12132 -2.12132 
C -2.683901 -1.55874 -3 -0.795609 -3 0 
C -3 0.795609 -2.683901 1.55874 -2.12132 2.12132 
C -1.55874 2.683901 -0.795609 3 0 3 
z
" id="m6ff5c72ee2" style="stroke:#0000ff;"/>
    </defs>
    <g clip-path="url(#pd14b4da14e)">
     <use style="fill:#0000ff;stroke:#0000ff;" x="79.069091" xlink:href="#m6ff5c72ee2" y="264.649667"/>
     <use style="fill:#0000ff;stroke:#0000ff;" x="84.305455" xlink:href="#m6ff5c72ee2" y="263.960211"/>
     <use style="fill:#0000ff;stroke:#0000ff;" x="88.232727" xlink:href="#m6ff5c72ee2" y="264.676704"/>
     <use style="fill:#0000ff;stroke:#0000ff;" x="96.087273" xlink:href="#m6ff5c72ee2" y="262.405555"/>
     <use style="fill:#0000ff;stroke:#0000ff;" x="101.323636" xlink:href="#m6ff5c72ee2" y="262.216293"/>
     <use style="fill:#0000ff;stroke:#0000ff;" x="105.250909" xlink:href="#m6ff5c72ee2" y="263.892617"/>
     <use style="fill:#0000ff;stroke:#0000ff;" x="111.796364" xlink:href="#m6ff5c72ee2" y="263.64928"/>
     <use style="fill:#0000ff;stroke:#0000ff;" x="122.269091" xlink:href="#m6ff5c72ee2" y="263.716874"/>
     <use style="fill:#0000ff;stroke:#0000ff;" x="128.814545" xlink:href="#m6ff5c72ee2" y="263.662799"/>
     <use style="fill:#0000ff;stroke:#0000ff;" x="140.596364" xlink:href="#m6ff5c72ee2" y="261.148312"/>
     <use style="fill:#0000ff;stroke:#0000ff;" x="144.523636" xlink:href="#m6ff5c72ee2" y="260.607562"/>
     <use style="fill:#0000ff;stroke:#0000ff;" x="149.76" xlink:href="#m6ff5c72ee2" y="260.702194"/>
     <use style="fill:#0000ff;stroke:#0000ff;" x="162.850909" xlink:href="#m6ff5c72ee2" y="258.039001"/>
     <use style="fill:#0000ff;stroke:#0000ff;" x="172.014545" xlink:href="#m6ff5c72ee2" y="256.416752"/>
     <use style="fill:#0000ff;stroke:#0000ff;" x="187.723636" xlink:href="#m6ff5c72ee2" y="255.930077"/>
     <use style="fill:#0000ff;stroke:#0000ff;" x="192.96" xlink:href="#m6ff5c72ee2" y="253.456147"/>
     <use style="fill:#0000ff;stroke:#0000ff;" x="207.36" xlink:href="#m6ff5c72ee2" y="247.602531"/>
     <use style="fill:#0000ff;stroke:#0000ff;" x="212.596364" xlink:href="#m6ff5c72ee2" y="237.111986"/>
     <use style="fill:#0000ff;stroke:#0000ff;" x="217.832727" xlink:href="#m6ff5c72ee2" y="218.726494"/>
     <use style="fill:#0000ff;stroke:#0000ff;" x="221.76" xlink:href="#m6ff5c72ee2" y="223.944729"/>
     <use style="fill:#0000ff;stroke:#0000ff;" x="225.687273" xlink:href="#m6ff5c72ee2" y="222.64693"/>
     <use style="fill:#0000ff;stroke:#0000ff;" x="233.541818" xlink:href="#m6ff5c72ee2" y="221.227462"/>
     <use style="fill:#0000ff;stroke:#0000ff;" x="238.778182" xlink:href="#m6ff5c72ee2" y="221.551911"/>
     <use style="fill:#0000ff;stroke:#0000ff;" x="245.323636" xlink:href="#m6ff5c72ee2" y="225.215491"/>
     <use style="fill:#0000ff;stroke:#0000ff;" x="257.105455" xlink:href="#m6ff5c72ee2" y="212.62954"/>
     <use style="fill:#0000ff;stroke:#0000ff;" x="261.032727" xlink:href="#m6ff5c72ee2" y="216.61757"/>
     <use style="fill:#0000ff;stroke:#0000ff;" x="268.887273" xlink:href="#m6ff5c72ee2" y="214.846614"/>
     <use style="fill:#0000ff;stroke:#0000ff;" x="272.814545" xlink:href="#m6ff5c72ee2" y="216.590532"/>
     <use style="fill:#0000ff;stroke:#0000ff;" x="296.378182" xlink:href="#m6ff5c72ee2" y="195.217398"/>
     <use style="fill:#0000ff;stroke:#0000ff;" x="300.305455" xlink:href="#m6ff5c72ee2" y="191.283444"/>
     <use style="fill:#0000ff;stroke:#0000ff;" x="308.16" xlink:href="#m6ff5c72ee2" y="179.197687"/>
     <use style="fill:#0000ff;stroke:#0000ff;" x="312.087273" xlink:href="#m6ff5c72ee2" y="178.170262"/>
     <use style="fill:#0000ff;stroke:#0000ff;" x="321.250909" xlink:href="#m6ff5c72ee2" y="176.629126"/>
     <use style="fill:#0000ff;stroke:#0000ff;" x="330.414545" xlink:href="#m6ff5c72ee2" y="169.166779"/>
     <use style="fill:#0000ff;stroke:#0000ff;" x="336.96" xlink:href="#m6ff5c72ee2" y="168.179911"/>
     <use style="fill:#0000ff;stroke:#0000ff;" x="346.123636" xlink:href="#m6ff5c72ee2" y="156.945834"/>
     <use style="fill:#0000ff;stroke:#0000ff;" x="352.669091" xlink:href="#m6ff5c72ee2" y="154.052823"/>
     <use style="fill:#0000ff;stroke:#0000ff;" x="378.850909" xlink:href="#m6ff5c72ee2" y="83.363312"/>
     <use style="fill:#0000ff;stroke:#0000ff;" x="381.469091" xlink:href="#m6ff5c72ee2" y="83.985174"/>
     <use style="fill:#0000ff;stroke:#0000ff;" x="391.941818" xlink:href="#m6ff5c72ee2" y="53.568"/>
    </g>
   </g>
   <g id="line2d_16">
    <path clip-path="url(#pd14b4da14e)" d="M 73.832727 295.488 
L 398.487273 124.814152 
" style="fill:none;stroke:#0000ff;stroke-dasharray:5.55,2.4;stroke-dashoffset:0;stroke-width:1.5;"/>
   </g>
   <g id="line2d_17">
    <path clip-path="url(#pd14b4da14e)" d="M 80.378182 269.308415 
L 178.56 260.051126 
" style="fill:none;stroke:#008000;stroke-dasharray:5.55,2.4;stroke-dashoffset:0;stroke-width:1.5;"/>
   </g>
   <g id="line2d_18">
    <path clip-path="url(#pd14b4da14e)" d="M 80.378182 269.308415 
L 178.56 260.051126 
" style="fill:none;stroke:#008000;stroke-dasharray:5.55,2.4;stroke-dashoffset:0;stroke-width:1.5;"/>
   </g>
   <g id="line2d_19">
    <path clip-path="url(#pd14b4da14e)" d="M 80.378182 269.308415 
L 178.56 260.051126 
" style="fill:none;stroke:#008000;stroke-dasharray:5.55,2.4;stroke-dashoffset:0;stroke-width:1.5;"/>
   </g>
   <g id="line2d_20">
    <path clip-path="url(#pd14b4da14e)" d="M 105.250909 263.892443 
L 363.141818 149.396859 
" style="fill:none;stroke:#ff0000;stroke-dasharray:5.55,2.4;stroke-dashoffset:0;stroke-width:1.5;"/>
   </g>
   <g id="line2d_21">
    <path clip-path="url(#pd14b4da14e)" d="M 79.069091 264.672415 
L 306.850909 189.15158 
" style="fill:none;stroke:#ff0000;stroke-dasharray:5.55,2.4;stroke-dashoffset:0;stroke-width:1.5;"/>
   </g>
   <g id="line2d_22">
    <path clip-path="url(#pd14b4da14e)" d="M 296.378182 195.197592 
L 385.396364 74.484012 
" style="fill:none;stroke:#ff0000;stroke-dasharray:5.55,2.4;stroke-dashoffset:0;stroke-width:1.5;"/>
   </g>
   <g id="patch_3">
    <path d="M 57.6 307.584 
L 57.6 41.472 
" style="fill:none;stroke:#000000;stroke-linecap:square;stroke-linejoin:miter;stroke-width:0.8;"/>
   </g>
   <g id="patch_4">
    <path d="M 414.72 307.584 
L 414.72 41.472 
" style="fill:none;stroke:#000000;stroke-linecap:square;stroke-linejoin:miter;stroke-width:0.8;"/>
   </g>
   <g id="patch_5">
    <path d="M 57.6 307.584 
L 414.72 307.584 
" style="fill:none;stroke:#000000;stroke-linecap:square;stroke-linejoin:miter;stroke-width:0.8;"/>
   </g>
   <g id="patch_6">
    <path d="M 57.6 41.472 
L 414.72 41.472 
" style="fill:none;stroke:#000000;stroke-linecap:square;stroke-linejoin:miter;stroke-width:0.8;"/>
   </g>
   <g id="text_14">
    <!-- Prices with Support/Resistance Trend Lines -->
    <g transform="translate(107.924062 35.472)scale(0.12 -0.12)">
     <defs>
      <path d="M 44.28125 53.078125 
L 44.28125 44.578125 
Q 40.484375 46.53125 36.375 47.5 
Q 32.28125 48.484375 27.875 48.484375 
Q 21.1875 48.484375 17.84375 46.4375 
Q 14.5 44.390625 14.5 40.28125 
Q 14.5 37.15625 16.890625 35.375 
Q 19.28125 33.59375 26.515625 31.984375 
L 29.59375 31.296875 
Q 39.15625 29.25 43.1875 25.515625 
Q 47.21875 21.78125 47.21875 15.09375 
Q 47.21875 7.46875 41.1875 3.015625 
Q 35.15625 -1.421875 24.609375 -1.421875 
Q 20.21875 -1.421875 15.453125 -0.5625 
Q 10.6875 0.296875 5.421875 2 
L 5.421875 11.28125 
Q 10.40625 8.6875 15.234375 7.390625 
Q 20.0625 6.109375 24.8125 6.109375 
Q 31.15625 6.109375 34.5625 8.28125 
Q 37.984375 10.453125 37.984375 14.40625 
Q 37.984375 18.0625 35.515625 20.015625 
Q 33.0625 21.96875 24.703125 23.78125 
L 21.578125 24.515625 
Q 13.234375 26.265625 9.515625 29.90625 
Q 5.8125 33.546875 5.8125 39.890625 
Q 5.8125 47.609375 11.28125 51.796875 
Q 16.75 56 26.8125 56 
Q 31.78125 56 36.171875 55.265625 
Q 40.578125 54.546875 44.28125 53.078125 
z
" id="DejaVuSans-115"/>
      <path id="DejaVuSans-32"/>
      <path d="M 4.203125 54.6875 
L 13.1875 54.6875 
L 24.421875 12.015625 
L 35.59375 54.6875 
L 46.1875 54.6875 
L 57.421875 12.015625 
L 68.609375 54.6875 
L 77.59375 54.6875 
L 63.28125 0 
L 52.6875 0 
L 40.921875 44.828125 
L 29.109375 0 
L 18.5 0 
z
" id="DejaVuSans-119"/>
      <path d="M 54.890625 33.015625 
L 54.890625 0 
L 45.90625 0 
L 45.90625 32.71875 
Q 45.90625 40.484375 42.875 44.328125 
Q 39.84375 48.1875 33.796875 48.1875 
Q 26.515625 48.1875 22.3125 43.546875 
Q 18.109375 38.921875 18.109375 30.90625 
L 18.109375 0 
L 9.078125 0 
L 9.078125 75.984375 
L 18.109375 75.984375 
L 18.109375 46.1875 
Q 21.34375 51.125 25.703125 53.5625 
Q 30.078125 56 35.796875 56 
Q 45.21875 56 50.046875 50.171875 
Q 54.890625 44.34375 54.890625 33.015625 
z
" id="DejaVuSans-104"/>
      <path d="M 53.515625 70.515625 
L 53.515625 60.890625 
Q 47.90625 63.578125 42.921875 64.890625 
Q 37.9375 66.21875 33.296875 66.21875 
Q 25.25 66.21875 20.875 63.09375 
Q 16.5 59.96875 16.5 54.203125 
Q 16.5 49.359375 19.40625 46.890625 
Q 22.3125 44.4375 30.421875 42.921875 
L 36.375 41.703125 
Q 47.40625 39.59375 52.65625 34.296875 
Q 57.90625 29 57.90625 20.125 
Q 57.90625 9.515625 50.796875 4.046875 
Q 43.703125 -1.421875 29.984375 -1.421875 
Q 24.8125 -1.421875 18.96875 -0.25 
Q 13.140625 0.921875 6.890625 3.21875 
L 6.890625 13.375 
Q 12.890625 10.015625 18.65625 8.296875 
Q 24.421875 6.59375 29.984375 6.59375 
Q 38.421875 6.59375 43.015625 9.90625 
Q 47.609375 13.234375 47.609375 19.390625 
Q 47.609375 24.75 44.3125 27.78125 
Q 41.015625 30.8125 33.5 32.328125 
L 27.484375 33.5 
Q 16.453125 35.6875 11.515625 40.375 
Q 6.59375 45.0625 6.59375 53.421875 
Q 6.59375 63.09375 13.40625 68.65625 
Q 20.21875 74.21875 32.171875 74.21875 
Q 37.3125 74.21875 42.625 73.28125 
Q 47.953125 72.359375 53.515625 70.515625 
z
" id="DejaVuSans-83"/>
      <path d="M 8.5 21.578125 
L 8.5 54.6875 
L 17.484375 54.6875 
L 17.484375 21.921875 
Q 17.484375 14.15625 20.5 10.265625 
Q 23.53125 6.390625 29.59375 6.390625 
Q 36.859375 6.390625 41.078125 11.03125 
Q 45.3125 15.671875 45.3125 23.6875 
L 45.3125 54.6875 
L 54.296875 54.6875 
L 54.296875 0 
L 45.3125 0 
L 45.3125 8.40625 
Q 42.046875 3.421875 37.71875 1 
Q 33.40625 -1.421875 27.6875 -1.421875 
Q 18.265625 -1.421875 13.375 4.4375 
Q 8.5 10.296875 8.5 21.578125 
z
M 31.109375 56 
z
" id="DejaVuSans-117"/>
      <path d="M 18.109375 8.203125 
L 18.109375 -20.796875 
L 9.078125 -20.796875 
L 9.078125 54.6875 
L 18.109375 54.6875 
L 18.109375 46.390625 
Q 20.953125 51.265625 25.265625 53.625 
Q 29.59375 56 35.59375 56 
Q 45.5625 56 51.78125 48.09375 
Q 58.015625 40.1875 58.015625 27.296875 
Q 58.015625 14.40625 51.78125 6.484375 
Q 45.5625 -1.421875 35.59375 -1.421875 
Q 29.59375 -1.421875 25.265625 0.953125 
Q 20.953125 3.328125 18.109375 8.203125 
z
M 48.6875 27.296875 
Q 48.6875 37.203125 44.609375 42.84375 
Q 40.53125 48.484375 33.40625 48.484375 
Q 26.265625 48.484375 22.1875 42.84375 
Q 18.109375 37.203125 18.109375 27.296875 
Q 18.109375 17.390625 22.1875 11.75 
Q 26.265625 6.109375 33.40625 6.109375 
Q 40.53125 6.109375 44.609375 11.75 
Q 48.6875 17.390625 48.6875 27.296875 
z
" id="DejaVuSans-112"/>
      <path d="M 30.609375 48.390625 
Q 23.390625 48.390625 19.1875 42.75 
Q 14.984375 37.109375 14.984375 27.296875 
Q 14.984375 17.484375 19.15625 11.84375 
Q 23.34375 6.203125 30.609375 6.203125 
Q 37.796875 6.203125 41.984375 11.859375 
Q 46.1875 17.53125 46.1875 27.296875 
Q 46.1875 37.015625 41.984375 42.703125 
Q 37.796875 48.390625 30.609375 48.390625 
z
M 30.609375 56 
Q 42.328125 56 49.015625 48.375 
Q 55.71875 40.765625 55.71875 27.296875 
Q 55.71875 13.875 49.015625 6.21875 
Q 42.328125 -1.421875 30.609375 -1.421875 
Q 18.84375 -1.421875 12.171875 6.21875 
Q 5.515625 13.875 5.515625 27.296875 
Q 5.515625 40.765625 12.171875 48.375 
Q 18.84375 56 30.609375 56 
z
" id="DejaVuSans-111"/>
      <path d="M 25.390625 72.90625 
L 33.6875 72.90625 
L 8.296875 -9.28125 
L 0 -9.28125 
z
" id="DejaVuSans-47"/>
      <path d="M 44.390625 34.1875 
Q 47.5625 33.109375 50.5625 29.59375 
Q 53.5625 26.078125 56.59375 19.921875 
L 66.609375 0 
L 56 0 
L 46.6875 18.703125 
Q 43.0625 26.03125 39.671875 28.421875 
Q 36.28125 30.8125 30.421875 30.8125 
L 19.671875 30.8125 
L 19.671875 0 
L 9.8125 0 
L 9.8125 72.90625 
L 32.078125 72.90625 
Q 44.578125 72.90625 50.734375 67.671875 
Q 56.890625 62.453125 56.890625 51.90625 
Q 56.890625 45.015625 53.6875 40.46875 
Q 50.484375 35.9375 44.390625 34.1875 
z
M 19.671875 64.796875 
L 19.671875 38.921875 
L 32.078125 38.921875 
Q 39.203125 38.921875 42.84375 42.21875 
Q 46.484375 45.515625 46.484375 51.90625 
Q 46.484375 58.296875 42.84375 61.546875 
Q 39.203125 64.796875 32.078125 64.796875 
z
" id="DejaVuSans-82"/>
      <path d="M 54.890625 33.015625 
L 54.890625 0 
L 45.90625 0 
L 45.90625 32.71875 
Q 45.90625 40.484375 42.875 44.328125 
Q 39.84375 48.1875 33.796875 48.1875 
Q 26.515625 48.1875 22.3125 43.546875 
Q 18.109375 38.921875 18.109375 30.90625 
L 18.109375 0 
L 9.078125 0 
L 9.078125 54.6875 
L 18.109375 54.6875 
L 18.109375 46.1875 
Q 21.34375 51.125 25.703125 53.5625 
Q 30.078125 56 35.796875 56 
Q 45.21875 56 50.046875 50.171875 
Q 54.890625 44.34375 54.890625 33.015625 
z
" id="DejaVuSans-110"/>
      <path d="M -0.296875 72.90625 
L 61.375 72.90625 
L 61.375 64.59375 
L 35.5 64.59375 
L 35.5 0 
L 25.59375 0 
L 25.59375 64.59375 
L -0.296875 64.59375 
z
" id="DejaVuSans-84"/>
      <path d="M 45.40625 46.390625 
L 45.40625 75.984375 
L 54.390625 75.984375 
L 54.390625 0 
L 45.40625 0 
L 45.40625 8.203125 
Q 42.578125 3.328125 38.25 0.953125 
Q 33.9375 -1.421875 27.875 -1.421875 
Q 17.96875 -1.421875 11.734375 6.484375 
Q 5.515625 14.40625 5.515625 27.296875 
Q 5.515625 40.1875 11.734375 48.09375 
Q 17.96875 56 27.875 56 
Q 33.9375 56 38.25 53.625 
Q 42.578125 51.265625 45.40625 46.390625 
z
M 14.796875 27.296875 
Q 14.796875 17.390625 18.875 11.75 
Q 22.953125 6.109375 30.078125 6.109375 
Q 37.203125 6.109375 41.296875 11.75 
Q 45.40625 17.390625 45.40625 27.296875 
Q 45.40625 37.203125 41.296875 42.84375 
Q 37.203125 48.484375 30.078125 48.484375 
Q 22.953125 48.484375 18.875 42.84375 
Q 14.796875 37.203125 14.796875 27.296875 
z
" id="DejaVuSans-100"/>
      <path d="M 9.8125 72.90625 
L 19.671875 72.90625 
L 19.671875 8.296875 
L 55.171875 8.296875 
L 55.171875 0 
L 9.8125 0 
z
" id="DejaVuSans-76"/>
     </defs>
     <use xlink:href="#DejaVuSans-80"/>
     <use x="58.552734" xlink:href="#DejaVuSans-114"/>
     <use x="99.666016" xlink:href="#DejaVuSans-105"/>
     <use x="127.449219" xlink:href="#DejaVuSans-99"/>
     <use x="182.429688" xlink:href="#DejaVuSans-101"/>
     <use x="243.953125" xlink:href="#DejaVuSans-115"/>
     <use x="296.052734" xlink:href="#DejaVuSans-32"/>
     <use x="327.839844" xlink:href="#DejaVuSans-119"/>
     <use x="409.626953" xlink:href="#DejaVuSans-105"/>
     <use x="437.410156" xlink:href="#DejaVuSans-116"/>
     <use x="476.619141" xlink:href="#DejaVuSans-104"/>
     <use x="539.998047" xlink:href="#DejaVuSans-32"/>
     <use x="571.785156" xlink:href="#DejaVuSans-83"/>
     <use x="635.261719" xlink:href="#DejaVuSans-117"/>
     <use x="698.640625" xlink:href="#DejaVuSans-112"/>
     <use x="762.117188" xlink:href="#DejaVuSans-112"/>
     <use x="825.59375" xlink:href="#DejaVuSans-111"/>
     <use x="886.775391" xlink:href="#DejaVuSans-114"/>
     <use x="927.888672" xlink:href="#DejaVuSans-116"/>
     <use x="967.097656" xlink:href="#DejaVuSans-47"/>
     <use x="1000.789062" xlink:href="#DejaVuSans-82"/>
     <use x="1065.771484" xlink:href="#DejaVuSans-101"/>
     <use x="1127.294922" xlink:href="#DejaVuSans-115"/>
     <use x="1179.394531" xlink:href="#DejaVuSans-105"/>
     <use x="1207.177734" xlink:href="#DejaVuSans-115"/>
     <use x="1259.277344" xlink:href="#DejaVuSans-116"/>
     <use x="1298.486328" xlink:href="#DejaVuSans-97"/>
     <use x="1359.765625" xlink:href="#DejaVuSans-110"/>
     <use x="1423.144531" xlink:href="#DejaVuSans-99"/>
     <use x="1478.125" xlink:href="#DejaVuSans-101"/>
     <use x="1539.648438" xlink:href="#DejaVuSans-32"/>
     <use x="1571.435547" xlink:href="#DejaVuSans-84"/>
     <use x="1617.769531" xlink:href="#DejaVuSans-114"/>
     <use x="1656.632812" xlink:href="#DejaVuSans-101"/>
     <use x="1718.15625" xlink:href="#DejaVuSans-110"/>
     <use x="1781.535156" xlink:href="#DejaVuSans-100"/>
     <use x="1845.011719" xlink:href="#DejaVuSans-32"/>
     <use x="1876.798828" xlink:href="#DejaVuSans-76"/>
     <use x="1932.511719" xlink:href="#DejaVuSans-105"/>
     <use x="1960.294922" xlink:href="#DejaVuSans-110"/>
     <use x="2023.673828" xlink:href="#DejaVuSans-101"/>
     <use x="2085.197266" xlink:href="#DejaVuSans-115"/>
    </g>
   </g>
   <g id="legend_1">
    <g id="patch_7">
     <path d="M 64.6 122.862625 
L 175.3625 122.862625 
Q 177.3625 122.862625 177.3625 120.862625 
L 177.3625 48.472 
Q 177.3625 46.472 175.3625 46.472 
L 64.6 46.472 
Q 62.6 46.472 62.6 48.472 
L 62.6 120.862625 
Q 62.6 122.862625 64.6 122.862625 
z
" style="fill:#ffffff;opacity:0.8;stroke:#cccccc;stroke-linejoin:miter;"/>
    </g>
    <g id="line2d_23">
     <path d="M 66.6 54.570438 
L 86.6 54.570438 
" style="fill:none;stroke:#000000;stroke-dasharray:5.55,2.4;stroke-dashoffset:0;stroke-width:1.5;"/>
    </g>
    <g id="line2d_24"/>
    <g id="text_15">
     <!-- Close Price -->
     <g transform="translate(94.6 58.070438)scale(0.1 -0.1)">
      <defs>
       <path d="M 64.40625 67.28125 
L 64.40625 56.890625 
Q 59.421875 61.53125 53.78125 63.8125 
Q 48.140625 66.109375 41.796875 66.109375 
Q 29.296875 66.109375 22.65625 58.46875 
Q 16.015625 50.828125 16.015625 36.375 
Q 16.015625 21.96875 22.65625 14.328125 
Q 29.296875 6.6875 41.796875 6.6875 
Q 48.140625 6.6875 53.78125 8.984375 
Q 59.421875 11.28125 64.40625 15.921875 
L 64.40625 5.609375 
Q 59.234375 2.09375 53.4375 0.328125 
Q 47.65625 -1.421875 41.21875 -1.421875 
Q 24.65625 -1.421875 15.125 8.703125 
Q 5.609375 18.84375 5.609375 36.375 
Q 5.609375 53.953125 15.125 64.078125 
Q 24.65625 74.21875 41.21875 74.21875 
Q 47.75 74.21875 53.53125 72.484375 
Q 59.328125 70.75 64.40625 67.28125 
z
" id="DejaVuSans-67"/>
       <path d="M 9.421875 75.984375 
L 18.40625 75.984375 
L 18.40625 0 
L 9.421875 0 
z
" id="DejaVuSans-108"/>
      </defs>
      <use xlink:href="#DejaVuSans-67"/>
      <use x="69.824219" xlink:href="#DejaVuSans-108"/>
      <use x="97.607422" xlink:href="#DejaVuSans-111"/>
      <use x="158.789062" xlink:href="#DejaVuSans-115"/>
      <use x="210.888672" xlink:href="#DejaVuSans-101"/>
      <use x="272.412109" xlink:href="#DejaVuSans-32"/>
      <use x="304.199219" xlink:href="#DejaVuSans-80"/>
      <use x="362.751953" xlink:href="#DejaVuSans-114"/>
      <use x="403.865234" xlink:href="#DejaVuSans-105"/>
      <use x="431.648438" xlink:href="#DejaVuSans-99"/>
      <use x="486.628906" xlink:href="#DejaVuSans-101"/>
     </g>
    </g>
    <g id="line2d_25">
     <path d="M 66.6 69.248563 
L 86.6 69.248563 
" style="fill:none;stroke:#bfbf00;stroke-dasharray:5.55,2.4;stroke-dashoffset:0;stroke-width:1.5;"/>
    </g>
    <g id="line2d_26"/>
    <g id="text_16">
     <!-- Avg. Support -->
     <g transform="translate(94.6 72.748563)scale(0.1 -0.1)">
      <defs>
       <path d="M 34.1875 63.1875 
L 20.796875 26.90625 
L 47.609375 26.90625 
z
M 28.609375 72.90625 
L 39.796875 72.90625 
L 67.578125 0 
L 57.328125 0 
L 50.6875 18.703125 
L 17.828125 18.703125 
L 11.1875 0 
L 0.78125 0 
z
" id="DejaVuSans-65"/>
       <path d="M 2.984375 54.6875 
L 12.5 54.6875 
L 29.59375 8.796875 
L 46.6875 54.6875 
L 56.203125 54.6875 
L 35.6875 0 
L 23.484375 0 
z
" id="DejaVuSans-118"/>
       <path d="M 45.40625 27.984375 
Q 45.40625 37.75 41.375 43.109375 
Q 37.359375 48.484375 30.078125 48.484375 
Q 22.859375 48.484375 18.828125 43.109375 
Q 14.796875 37.75 14.796875 27.984375 
Q 14.796875 18.265625 18.828125 12.890625 
Q 22.859375 7.515625 30.078125 7.515625 
Q 37.359375 7.515625 41.375 12.890625 
Q 45.40625 18.265625 45.40625 27.984375 
z
M 54.390625 6.78125 
Q 54.390625 -7.171875 48.1875 -13.984375 
Q 42 -20.796875 29.203125 -20.796875 
Q 24.46875 -20.796875 20.265625 -20.09375 
Q 16.0625 -19.390625 12.109375 -17.921875 
L 12.109375 -9.1875 
Q 16.0625 -11.328125 19.921875 -12.34375 
Q 23.78125 -13.375 27.78125 -13.375 
Q 36.625 -13.375 41.015625 -8.765625 
Q 45.40625 -4.15625 45.40625 5.171875 
L 45.40625 9.625 
Q 42.625 4.78125 38.28125 2.390625 
Q 33.9375 0 27.875 0 
Q 17.828125 0 11.671875 7.65625 
Q 5.515625 15.328125 5.515625 27.984375 
Q 5.515625 40.671875 11.671875 48.328125 
Q 17.828125 56 27.875 56 
Q 33.9375 56 38.28125 53.609375 
Q 42.625 51.21875 45.40625 46.390625 
L 45.40625 54.6875 
L 54.390625 54.6875 
z
" id="DejaVuSans-103"/>
       <path d="M 10.6875 12.40625 
L 21 12.40625 
L 21 0 
L 10.6875 0 
z
" id="DejaVuSans-46"/>
      </defs>
      <use xlink:href="#DejaVuSans-65"/>
      <use x="62.533203" xlink:href="#DejaVuSans-118"/>
      <use x="121.712891" xlink:href="#DejaVuSans-103"/>
      <use x="185.189453" xlink:href="#DejaVuSans-46"/>
      <use x="216.976562" xlink:href="#DejaVuSans-32"/>
      <use x="248.763672" xlink:href="#DejaVuSans-83"/>
      <use x="312.240234" xlink:href="#DejaVuSans-117"/>
      <use x="375.619141" xlink:href="#DejaVuSans-112"/>
      <use x="439.095703" xlink:href="#DejaVuSans-112"/>
      <use x="502.572266" xlink:href="#DejaVuSans-111"/>
      <use x="563.753906" xlink:href="#DejaVuSans-114"/>
      <use x="604.867188" xlink:href="#DejaVuSans-116"/>
     </g>
    </g>
    <g id="line2d_27">
     <path d="M 66.6 83.926688 
L 86.6 83.926688 
" style="fill:none;stroke:#0000ff;stroke-dasharray:5.55,2.4;stroke-dashoffset:0;stroke-width:1.5;"/>
    </g>
    <g id="line2d_28"/>
    <g id="text_17">
     <!-- Avg. Resistance -->
     <g transform="translate(94.6 87.426688)scale(0.1 -0.1)">
      <use xlink:href="#DejaVuSans-65"/>
      <use x="62.533203" xlink:href="#DejaVuSans-118"/>
      <use x="121.712891" xlink:href="#DejaVuSans-103"/>
      <use x="185.189453" xlink:href="#DejaVuSans-46"/>
      <use x="216.976562" xlink:href="#DejaVuSans-32"/>
      <use x="248.763672" xlink:href="#DejaVuSans-82"/>
      <use x="313.746094" xlink:href="#DejaVuSans-101"/>
      <use x="375.269531" xlink:href="#DejaVuSans-115"/>
      <use x="427.369141" xlink:href="#DejaVuSans-105"/>
      <use x="455.152344" xlink:href="#DejaVuSans-115"/>
      <use x="507.251953" xlink:href="#DejaVuSans-116"/>
      <use x="546.460938" xlink:href="#DejaVuSans-97"/>
      <use x="607.740234" xlink:href="#DejaVuSans-110"/>
      <use x="671.119141" xlink:href="#DejaVuSans-99"/>
      <use x="726.099609" xlink:href="#DejaVuSans-101"/>
     </g>
    </g>
    <g id="line2d_29">
     <path d="M 66.6 98.604813 
L 86.6 98.604813 
" style="fill:none;stroke:#008000;stroke-dasharray:5.55,2.4;stroke-dashoffset:0;stroke-width:1.5;"/>
    </g>
    <g id="line2d_30"/>
    <g id="text_18">
     <!-- Support -->
     <g transform="translate(94.6 102.104813)scale(0.1 -0.1)">
      <use xlink:href="#DejaVuSans-83"/>
      <use x="63.476562" xlink:href="#DejaVuSans-117"/>
      <use x="126.855469" xlink:href="#DejaVuSans-112"/>
      <use x="190.332031" xlink:href="#DejaVuSans-112"/>
      <use x="253.808594" xlink:href="#DejaVuSans-111"/>
      <use x="314.990234" xlink:href="#DejaVuSans-114"/>
      <use x="356.103516" xlink:href="#DejaVuSans-116"/>
     </g>
    </g>
    <g id="line2d_31">
     <path d="M 66.6 113.282938 
L 86.6 113.282938 
" style="fill:none;stroke:#ff0000;stroke-dasharray:5.55,2.4;stroke-dashoffset:0;stroke-width:1.5;"/>
    </g>
    <g id="line2d_32"/>
    <g id="text_19">
     <!-- Resistance -->
     <g transform="translate(94.6 116.782938)scale(0.1 -0.1)">
      <use xlink:href="#DejaVuSans-82"/>
      <use x="64.982422" xlink:href="#DejaVuSans-101"/>
      <use x="126.505859" xlink:href="#DejaVuSans-115"/>
      <use x="178.605469" xlink:href="#DejaVuSans-105"/>
      <use x="206.388672" xlink:href="#DejaVuSans-115"/>
      <use x="258.488281" xlink:href="#DejaVuSans-116"/>
      <use x="297.697266" xlink:href="#DejaVuSans-97"/>
      <use x="358.976562" xlink:href="#DejaVuSans-110"/>
      <use x="422.355469" xlink:href="#DejaVuSans-99"/>
      <use x="477.335938" xlink:href="#DejaVuSans-101"/>
     </g>
    </g>
   </g>
  </g>
 </g>
 <defs>
  <clipPath id="pd14b4da14e">
   <rect height="266.112" width="357.12" x="57.6" y="41.472"/>
  </clipPath>
 </defs>
</svg>
